<svg xmlns="http://www.w3.org/2000/svg"><defs><linearGradient id="calendar-a" gradientUnits="userSpaceOnUse" x1="16.75" y1="12.45" x2="18.25" y2="12.45" gradientTransform="matrix(1 0 0 -1 0 24)"><stop offset="0" stop-color="currentColor"/><stop offset="1" stop-color="currentColor"/></linearGradient><linearGradient id="calendar-b" gradientUnits="userSpaceOnUse" x1="16.75" y1="6.45" x2="18.25" y2="6.45" gradientTransform="matrix(1 0 0 -1 0 24)"><stop offset="0" stop-color="currentColor"/><stop offset="1" stop-color="currentColor"/></linearGradient></defs><symbol viewBox="0 0 24 24" id="icon-barcode"><title>barcode</title><path fill="none" stroke="currentColor" stroke-linejoin="round" stroke-miterlimit="10" d="M4.5 8v8M6.5 8v6M19.5 8v8"/><path d="M7 15H6v1h1zM10 15H9v1h1zM12 15h-1v1h1zM16 15h-1v1h1zM18 15h-1v1h1z"/><path fill="none" stroke="currentColor" stroke-linejoin="round" stroke-miterlimit="10" d="M9.5 8v6M11.5 8v6M15.5 8v6M17.5 8v6"/><path fill="none" stroke="currentColor" stroke-width="1.5" stroke-linejoin="round" stroke-miterlimit="10" d="M21.8 18.2H2.2c-.8 0-1.5-.7-1.5-1.5V7.2c0-.8.7-1.5 1.5-1.5h19.5c.8 0 1.5.7 1.5 1.5v9.5c0 .9-.6 1.5-1.4 1.5z"/></symbol><symbol viewBox="0 0 24 24" id="icon-basketball"><title>basketball</title><g fill="none" stroke="currentColor" stroke-width="1.5" stroke-linejoin="round" stroke-miterlimit="10"><ellipse cx="11.9" cy="12" rx="11.2" ry="11.2"/><path d="M3.7 19.7C5 15.6 9.2 6.5 20.2 4.3M3.5 4.5c4.5 1.6 12.8 6 14.7 16.9"/><path d="M10.5.9v.4c0 4.6-3.7 8.3-8.2 8.3-.4 0-.8 0-1.1-.1M11.7 23.2c-.8-1.2-1.2-2.8-1.2-4.4 0-4.6 3.7-8.3 8.2-8.3 1.6 0 3.2.5 4.5 1.3"/></g></symbol><symbol viewBox="0 0 24 24" id="icon-calendar"><title>calendar</title><path fill="none" stroke="currentColor" stroke-width="1.5" stroke-linecap="round" stroke-linejoin="round" stroke-miterlimit="10" d="M4.3 2.8H.8v20.4h22.4V2.8h-3.3"/><path fill="none" stroke="currentColor" stroke-width="1.5" stroke-linecap="round" stroke-linejoin="round" stroke-miterlimit="10" d="M4.8.8h4.5v4.5H4.8zM14.8.8h4.5v4.5h-4.5zM9.5 2.8h5M5.8 10.8h1.5v1.5H5.8zM11.2 10.8h1.5v1.5h-1.5z"/><path fill="currentColor" stroke="currentColor" stroke-width="1.5" stroke-linecap="round" stroke-linejoin="round" stroke-miterlimit="10" d="M16.8 10.8h1.5v1.5h-1.5z"/><path fill="none" stroke="currentColor" stroke-width="1.5" stroke-linecap="round" stroke-linejoin="round" stroke-miterlimit="10" d="M5.8 16.8h1.5v1.5H5.8zM11.2 16.8h1.5v1.5h-1.5z"/><path fill="currentColor" stroke="currentColor" stroke-width="1.5" stroke-linecap="round" stroke-linejoin="round" stroke-miterlimit="10" d="M16.8 16.8h1.5v1.5h-1.5z"/></symbol><symbol viewBox="0 0 20 20" id="icon-cart"><title>cart</title><g fill="none" stroke="currentColor" stroke-width="1.4" stroke-linecap="round" stroke-linejoin="round" stroke-miterlimit="10"><ellipse cx="16" cy="17" rx="1.2" ry="1.3"/><ellipse cx="7" cy="17" rx="1.2" ry="1.3"/><path d="M.9 1.7h2.8l2.9 14h9.3"/><path d="M6.8 13.3h9.9L19 5.7H5"/></g></symbol><symbol viewBox="0 0 24 24" id="icon-check"><title>check</title><path fill="none" stroke="currentColor" stroke-linecap="round" stroke-linejoin="round" stroke-miterlimit="10" d="M22 5L7.7 19 2 13.4"/></symbol><symbol viewBox="0 0 24 24" id="icon-chevron-down"><title>chevron-down</title><path fill="none" stroke="currentColor" stroke-linecap="round" stroke-linejoin="round" stroke-miterlimit="10" d="M2 7l10 10L22 7"/></symbol><symbol viewBox="0 0 24 24" id="icon-chevron-left"><title>chevron-left</title><path fill="none" stroke="currentColor" stroke-linecap="round" stroke-linejoin="round" stroke-miterlimit="10" d="M17 2L7 12l10 10"/></symbol><symbol viewBox="0 0 24 24" id="icon-chevron-right"><title>chevron-right</title><path fill="none" stroke="currentColor" stroke-linecap="round" stroke-linejoin="round" stroke-miterlimit="10" d="M7 22l10-10L7 2"/></symbol><symbol viewBox="0 0 24 24" id="icon-chevron-up"><title>chevron-up</title><path fill="none" stroke="currentColor" stroke-linecap="round" stroke-linejoin="round" stroke-miterlimit="10" d="M22 17L12 7 2 17"/></symbol><symbol viewBox="0 0 25 25" id="icon-circle-x"><title>circle-x</title><g fill="none" stroke="currentColor" stroke-width="1.5" stroke-linecap="round" stroke-linejoin="round" stroke-miterlimit="10"><circle cx="12.5" cy="12.5" r="11.8"/><path d="M17 8l-9 9M17 17L8 8"/></g></symbol><symbol viewBox="0 0 24 24" id="icon-clock"><title>clock</title><g fill="none" stroke="currentColor" stroke-width="1.5" stroke-linecap="round" stroke-linejoin="round" stroke-miterlimit="10"><circle cx="12" cy="12" r="11.2"/><path d="M12 6.9V12l5.1 5.1"/></g></symbol><symbol viewBox="0 0 24 24" id="icon-email"><title>email</title><g fill="none" stroke="currentColor" stroke-width="1.5" stroke-linecap="round" stroke-linejoin="round" stroke-miterlimit="10"><path d="M23.2 17.7c0 .8-.7 1.6-1.6 1.6H2.4c-.9 0-1.6-.7-1.6-1.6V6.3c0-.8.7-1.6 1.6-1.6h19.3c.8 0 1.5.7 1.5 1.6v11.4z"/><path d="M22.7 5.3L12 13.6 1.3 5.3"/></g></symbol><symbol viewBox="0 0 24 24" id="icon-facebook"><title>facebook</title><path d="M17.3 7.7h-4.1V5.8c0-.9.6-1.1 1-1.1h2.9V1h-4.2C9.1 1 8.4 3.8 8.4 5.6v2.1H5.5v3.8h2.9V23h4.8V11.5h3.7l.4-3.8z"/></symbol><symbol viewBox="0 0 24 24" id="icon-gear"><title>gear</title><g fill="none" stroke="currentColor" stroke-width="1.5" stroke-linejoin="round" stroke-miterlimit="10"><ellipse cx="12" cy="12" rx="4.3" ry="4.2"/><path d="M21.2 12c0-.7-.1-1.3-.2-1.9l2.2-1.3-2.8-4.9-2.2 1.3c-1-.9-1.9-1.5-3.3-1.9V.8H9.3v2.6c-1.5.3-2.5 1-3.4 1.8L3.6 3.9.8 8.8 3 10.1c-.1.6-.2 1.3-.2 1.9 0 .7.1 1.3.2 1.9L.8 15.2l2.8 4.9 2.3-1.3c1 .9 2 1.5 3.4 1.9v2.6H15v-2.6c1.4-.4 2.3-1.1 3.3-1.9l2.2 1.3 2.8-4.9-2.3-1.3c.1-.6.2-1.2.2-1.9z"/></g></symbol><symbol viewBox="0 0 24 24" id="icon-globe"><title>globe</title><g fill="none" stroke="currentColor" stroke-width="1.5" stroke-linecap="round" stroke-linejoin="round" stroke-miterlimit="10"><circle cx="12" cy="12" r="11.2"/><path d="M20.3 4.4s-.5 2.7-2.4 3.7c-2-.5-3.9 1-3.4 1s1 2 1 2c.5.5 1.5 0 1.5 0 1.2 1.2-2 3.4-2 3.9s1.2.7.5 1.5c-.7.7-1.5 1-1.5 1 0 2.4-2.4 2.4-2.9 2.4s-1.5-2-1.5-2.4.5-1 .5-1.5-1-1.5-1-1.5c0-2-1.5-1.5-2.9-1.5s-1.5-2-1.5-2 0-3.4 2.4-3.9 2.4.5 2.4.5c1 1 2.9 0 3.9 0 0 0 .5-3.4-.5-2.9s-1.9.1-2-1c-.1-1.5 4.3-2.4 4.3-2.4"/></g></symbol><symbol viewBox="0 0 24 24" id="icon-paper-airplane"><title>paper-airplane</title><g fill="none" stroke="currentColor" stroke-width="1.5" stroke-linejoin="round" stroke-miterlimit="10"><path d="M23.2 1.8L.8 11.1l8.7 3.6z"/><path d="M23.2 1.8l-3.8 18.3-9.9-5.4z"/><path d="M9.8 14.7v7.5l3.2-5.6"/></g></symbol><symbol viewBox="0 0 24 24" id="icon-people"><title>people</title><g fill="none" stroke="currentColor" stroke-width="1.5" stroke-linejoin="round" stroke-miterlimit="10"><path d="M8 21.2h7.1v-4.5c0-.5-2.6-2.2-5-3.2v-2.1s1-.3 1-2.6c.7 0 1-2.1 0-2.1 0-.2.7-1.3.4-2.6C11 2 6.1 2 5.7 4.1c-2-.4-.5 2.3-.5 2.6-1 0-.7 2.1 0 2.1 0 2.2 1 2.6 1 2.6v2.1c-2.5 1-5.4 2.6-5.4 3.1v4.6H8z"/><path stroke-linecap="round" d="M19.2 21.2h4.1v-4.6c0-.5-2.5-1.2-4.4-2.1V13s1-.3 1-2.1c.5 0 .7-2.1 0-2.1 0-.2.8-1.1.5-2.1-.5-1.5-4.4-1.5-4.9 0-1.7-.1-.5 2-.5 2.2-.8 0-.5 2.1 0 2.1 0 1.7 1 2.1 1 2.1"/></g></symbol><symbol viewBox="0 0 24 24" id="icon-phone"><title>phone</title><path fill="none" stroke="currentColor" stroke-width="1.5" stroke-linecap="round" stroke-linejoin="round" stroke-miterlimit="10" d="M9 7.3c.9-.9.9-2.4 0-3.3L6.5 1.4c-.9-.8-2.4-.8-3.3 0L1.8 2.9C.6 4 .5 5.9 1.3 7.3c4 6 9.4 11.3 15.4 15.4 1.5.9 3.2.7 4.5-.4l1.4-1.3c.9-.9.9-2.4 0-3.3L20 15.1c-.9-.9-2.4-.9-3.3 0l-.8.8c-2.7-2.3-5.4-4.9-7.7-7.7l.8-.9z"/></symbol><symbol viewBox="0 0 24 24" id="icon-pin"><title>pin</title><g fill="none" stroke="currentColor" stroke-width="1.5" stroke-linecap="round" stroke-linejoin="round" stroke-miterlimit="10"><path d="M19.2 8.1c0 4.1-7.2 15.2-7.2 15.2S4.8 12.2 4.8 8.1 7.9.8 12 .8s7.2 3.2 7.2 7.3z"/><ellipse cx="12" cy="8.1" rx="2.9" ry="2.9"/></g></symbol><symbol viewBox="0 0 24 24" id="icon-profile"><title>profile</title><g fill="none" stroke="currentColor" stroke-width="1.5" stroke-linejoin="round" stroke-miterlimit="10"><path d="M10 14.9s-1.5-.5-1.5-2.9c-.8 0-.8-2 0-2 0-.3-1.5-3.9 1-3.4.5-2 5.9-2 6.4 0 .3 1.4-.5 3.2-.5 3.4.8 0 .8 2 0 2 0 2.4-1.5 2.9-1.5 2.9v2.4c2.4.9 4.8 1.7 6.1 2.5 2-2 3.2-4.8 3.2-7.9C23.2 5.7 18.2.7 12 .7S.8 5.8.8 12c0 3.1 1.2 5.9 3.3 7.9 1.3-.9 3.9-1.7 6-2.5v-2.5z"/><path d="M4 19.9c2 2.1 4.9 3.3 8 3.3 3.1 0 6-1.3 8-3.4"/></g></symbol><symbol viewBox="0 0 24 24" id="icon-twitter"><title>twitter</title><path d="M24 4.9c-.9.4-1.6.4-2.4 0 1-.6 1-1 1.4-2.1-.9.6-2 1-3.1 1.2-.9-1-2.1-1.6-3.5-1.6-2.7 0-4.8 2.2-4.8 4.8 0 .4 0 .7.1 1.1-4-.2-7.6-2.1-10-5.1-.4.8-.6 1.7-.6 2.5 0 1.7.9 3.2 2.2 4-.9 0-1.6-.2-2.3-.5v.1c0 2.3 1.7 4.3 3.9 4.7-.7.2-1.5.2-2.2.1.6 1.9 2.4 3.3 4.5 3.4-2.1 1.6-4.6 2.3-7.2 2 2.1 1.4 4.7 2.2 7.4 2.2 8.9 0 13.8-7.4 13.8-13.8v-.6c1-.8 2.1-1.4 2.8-2.4z"/></symbol></svg>