<svg xmlns="http://www.w3.org/2000/svg"><defs><linearGradient id="calendar-a" gradientUnits="userSpaceOnUse" x1="16.75" y1="12.45" x2="18.25" y2="12.45" gradientTransform="matrix(1 0 0 -1 0 24)"><stop offset="0" stop-color="currentColor"/><stop offset="1" stop-color="currentColor"/></linearGradient><linearGradient id="calendar-b" gradientUnits="userSpaceOnUse" x1="16.75" y1="6.45" x2="18.25" y2="6.45" gradientTransform="matrix(1 0 0 -1 0 24)"><stop offset="0" stop-color="currentColor"/><stop offset="1" stop-color="currentColor"/></linearGradient></defs><symbol viewBox="0 0 24 24" id="icon-barcode"><title>barcode</title><path fill="none" stroke="currentColor" stroke-linejoin="round" stroke-miterlimit="10" d="M4.5 8v8M6.5 8v6M19.5 8v8"/><path d="M7 15H6v1h1zM10 15H9v1h1zM12 15h-1v1h1zM16 15h-1v1h1zM18 15h-1v1h1z"/><path fill="none" stroke="currentColor" stroke-linejoin="round" stroke-miterlimit="10" d="M9.5 8v6M11.5 8v6M15.5 8v6M17.5 8v6"/><path fill="none" stroke="currentColor" stroke-width="1.5" stroke-linejoin="round" stroke-miterlimit="10" d="M21.8 18.2H2.2c-.8 0-1.5-.7-1.5-1.5V7.2c0-.8.7-1.5 1.5-1.5h19.5c.8 0 1.5.7 1.5 1.5v9.5c0 .9-.6 1.5-1.4 1.5z"/></symbol><symbol viewBox="0 0 24 24" id="icon-basketball"><title>basketball</title><g fill="none" stroke="currentColor" stroke-width="1.5" stroke-linejoin="round" stroke-miterlimit="10"><ellipse cx="11.9" cy="12" rx="11.2" ry="11.2"/><path d="M3.7 19.7C5 15.6 9.2 6.5 20.2 4.3M3.5 4.5c4.5 1.6 12.8 6 14.7 16.9"/><path d="M10.5.9v.4c0 4.6-3.7 8.3-8.2 8.3-.4 0-.8 0-1.1-.1M11.7 23.2c-.8-1.2-1.2-2.8-1.2-4.4 0-4.6 3.7-8.3 8.2-8.3 1.6 0 3.2.5 4.5 1.3"/></g></symbol><symbol viewBox="0 0 24 24" id="icon-calendar"><title>calendar</title><path fill="none" stroke="currentColor" stroke-width="1.5" stroke-linecap="round" stroke-linejoin="round" stroke-miterlimit="10" d="M4.3 2.8H.8v20.4h22.4V2.8h-3.3"/><path fill="none" stroke="currentColor" stroke-width="1.5" stroke-linecap="round" stroke-linejoin="round" stroke-miterlimit="10" d="M4.8.8h4.5v4.5H4.8zM14.8.8h4.5v4.5h-4.5zM9.5 2.8h5M5.8 10.8h1.5v1.5H5.8zM11.2 10.8h1.5v1.5h-1.5z"/><path fill="currentColor" stroke="currentColor" stroke-width="1.5" stroke-linecap="round" stroke-linejoin="round" stroke-miterlimit="10" d="M16.8 10.8h1.5v1.5h-1.5z"/><path fill="none" stroke="currentColor" stroke-width="1.5" stroke-linecap="round" stroke-linejoin="round" stroke-miterlimit="10" d="M5.8 16.8h1.5v1.5H5.8zM11.2 16.8h1.5v1.5h-1.5z"/><path fill="currentColor" stroke="currentColor" stroke-width="1.5" stroke-linecap="round" stroke-linejoin="round" stroke-miterlimit="10" d="M16.8 16.8h1.5v1.5h-1.5z"/></symbol><symbol viewBox="0 0 20 20" id="icon-cart"><title>cart</title><g fill="none" stroke="currentColor" stroke-width="1.4" stroke-linecap="round" stroke-linejoin="round" stroke-miterlimit="10"><ellipse cx="16" cy="17" rx="1.2" ry="1.3"/><ellipse cx="7" cy="17" rx="1.2" ry="1.3"/><path d="M.9 1.7h2.8l2.9 14h9.3"/><path d="M6.8 13.3h9.9L19 5.7H5"/></g></symbol><symbol viewBox="0 0 24 24" id="icon-change-status"><title>change-status</title><g fill="none" stroke="currentColor" stroke-linecap="round" stroke-linejoin="round"><path d="M1 9h13m-4 5h13M5 13L1 9l4-4M20 18l3-4-3-4"/></g></symbol><symbol viewBox="0 0 24 24" id="icon-check"><title>check</title><path fill="none" stroke="currentColor" stroke-linecap="round" stroke-linejoin="round" stroke-miterlimit="10" d="M22 5L7.7 19 2 13.4"/></symbol><symbol viewBox="0 0 24 24" id="icon-chevron-down"><title>chevron-down</title><path fill="none" stroke="currentColor" stroke-linecap="round" stroke-linejoin="round" stroke-miterlimit="10" d="M2 7l10 10L22 7"/></symbol><symbol viewBox="0 0 24 24" id="icon-chevron-left"><title>chevron-left</title><path fill="none" stroke="currentColor" stroke-linecap="round" stroke-linejoin="round" stroke-miterlimit="10" d="M17 2L7 12l10 10"/></symbol><symbol viewBox="0 0 24 24" id="icon-chevron-right"><title>chevron-right</title><path fill="none" stroke="currentColor" stroke-linecap="round" stroke-linejoin="round" stroke-miterlimit="10" d="M7 22l10-10L7 2"/></symbol><symbol viewBox="0 0 24 24" id="icon-chevron-up"><title>chevron-up</title><path fill="none" stroke="currentColor" stroke-linecap="round" stroke-linejoin="round" stroke-miterlimit="10" d="M22 17L12 7 2 17"/></symbol><symbol viewBox="0 0 25 25" id="icon-circle-x"><title>circle-x</title><g fill="none" stroke="currentColor" stroke-width="1.5" stroke-linecap="round" stroke-linejoin="round" stroke-miterlimit="10"><circle cx="12.5" cy="12.5" r="11.8"/><path d="M17 8l-9 9M17 17L8 8"/></g></symbol><symbol viewBox="0 0 24 24" id="icon-clock"><title>clock</title><g fill="none" stroke="currentColor" stroke-width="1.5" stroke-linecap="round" stroke-linejoin="round" stroke-miterlimit="10"><circle cx="12" cy="12" r="11.2"/><path d="M12 6.9V12l5.1 5.1"/></g></symbol><symbol viewBox="0 0 24 24" id="icon-daxko"><title>daxko</title><path fill="currentColor" d="M20.063 0L3.968.031c-.803.165-1.021.473-1.063.563-.158.345-.162.485-.094.75.181.703.933 1.475 1.5 2.031l5 4.906c.761.745 1.728.946 2.72.938.97-.008 1.973-.208 2.718-.938l5.094-5c.752-.737 1.375-1.225 1.375-2.187 0-.094-.15-.577-.375-.782-.251-.228-.5-.284-.782-.312zM1.093 2.781c-.093 0-.576.15-.78.375-.23.251-.285.5-.313.781l.031 16.094c.165.803.473 1.021.563 1.063.345.158.485.162.75.093.703-.18 1.475-.932 2.031-1.5l4.906-5c.745-.76.946-1.727.938-2.718-.008-.97-.208-1.974-.938-2.719l-5-5.094c-.737-.752-1.225-1.375-2.187-1.375zm21.907 0a.879.879 0 0 0-.344.031c-.703.181-1.475.933-2.031 1.5l-4.906 5c-.745.761-.946 1.728-.938 2.72.008.97.208 1.973.938 2.718l5 5.094c.737.752 1.225 1.375 2.187 1.375.094 0 .577-.15.782-.375.228-.251.284-.5.312-.782L23.969 3.97c-.165-.803-.473-1.021-.563-1.063A1.343 1.343 0 0 0 23 2.781zm-11.031 12c-.97.008-1.974.208-2.719.938l-5.094 5c-.752.737-1.375 1.225-1.375 2.187 0 .094.15.577.375.782.251.228.5.284.781.312l16.094-.031c.803-.165 1.021-.473 1.063-.563.158-.345.162-.485.093-.75-.18-.703-.932-1.475-1.5-2.031l-5-4.906c-.76-.745-1.727-.946-2.718-.938z"/></symbol><symbol viewBox="0 0 24 24" id="icon-edit-person"><title>edit-person</title><g fill="none" stroke="currentColor" stroke-width="1.5"><path stroke-linecap="round" d="M17 22.465l-3.5 1 1-3.5 6.5-6.5 2.5 2.5z"/><path d="M19 15.465l2.5 2.5"/><path d="M14.5 19.965l2.5 2.5" stroke-linecap="round"/><path d="M16.432 14.465c-.777-.257-3.932-1.68-4.932-2v-2.5s1.5-.62 1.5-3c1 0 1-2.071 0-2.071 0-.234.897-1.607.569-2.93-.475-1.904-6.061-1.904-6.534 0C4.665 1.489 6 4.647 6 4.965c-.5 0-.5 2 0 2 0 2.38 1.5 3 1.5 3v2.5c-2.5 1.056-6.02 1.756-6.431 3-.475 1.43-.57 4.036-.57 4.036H11"/></g></symbol><symbol viewBox="0 0 24 24" id="icon-email"><title>email</title><g fill="none" stroke="currentColor" stroke-width="1.5" stroke-linecap="round" stroke-linejoin="round" stroke-miterlimit="10"><path d="M23.2 17.7c0 .8-.7 1.6-1.6 1.6H2.4c-.9 0-1.6-.7-1.6-1.6V6.3c0-.8.7-1.6 1.6-1.6h19.3c.8 0 1.5.7 1.5 1.6v11.4z"/><path d="M22.7 5.3L12 13.6 1.3 5.3"/></g></symbol><symbol viewBox="0 0 24 24" id="icon-exit"><title>exit</title><g fill="currentColor"><path d="M3.574 2.052C2.702 2.056 2 2.793 2 3.714v16.624c0 .92.702 1.666 1.574 1.662l11.02-.052c.872-.004 1.574-.741 1.574-1.662V16.96h-3.149v.883c0 .439-.322.776-.738.78l-6.395.051c-.415.004-.738-.34-.738-.779V6.156c0-.439.323-.776.738-.78l6.395-.051c.416-.004.738.34.738.779v.883h3.149V3.662c0-.92-.702-1.666-1.574-1.662l-11.02.052z"/><path d="M17.958 4.987c-.112 0 0 0 0 0v4.987H8.867c-.42 0-.755.373-.755.842v2.306c0 .469.334.842.755.842h9.09v4.987l.896-.998 4.476-4.987c.895-.997.895-.997 0-1.995l-4.476-4.987c-.447-.498-.783-.997-.895-.997z"/></g></symbol><symbol viewBox="0 0 24 24" id="icon-facebook"><title>facebook</title><path d="M17.3 7.7h-4.1V5.8c0-.9.6-1.1 1-1.1h2.9V1h-4.2C9.1 1 8.4 3.8 8.4 5.6v2.1H5.5v3.8h2.9V23h4.8V11.5h3.7l.4-3.8z" fill="currentColor"/></symbol><symbol viewBox="0 0 24 24" id="icon-gear"><title>gear</title><g fill="none" stroke="currentColor" stroke-width="1.5" stroke-linejoin="round" stroke-miterlimit="10"><ellipse cx="12" cy="12" rx="4.3" ry="4.2"/><path d="M21.2 12c0-.7-.1-1.3-.2-1.9l2.2-1.3-2.8-4.9-2.2 1.3c-1-.9-1.9-1.5-3.3-1.9V.8H9.3v2.6c-1.5.3-2.5 1-3.4 1.8L3.6 3.9.8 8.8 3 10.1c-.1.6-.2 1.3-.2 1.9 0 .7.1 1.3.2 1.9L.8 15.2l2.8 4.9 2.3-1.3c1 .9 2 1.5 3.4 1.9v2.6H15v-2.6c1.4-.4 2.3-1.1 3.3-1.9l2.2 1.3 2.8-4.9-2.3-1.3c.1-.6.2-1.2.2-1.9z"/></g></symbol><symbol viewBox="0 0 24 24" id="icon-give"><title>give</title><g fill="none" stroke="currentColor" stroke-width="1.5" stroke-linejoin="round" stroke-miterlimit="10"><path d="M.8 14.4h3.9v7.9H.8z"/><path stroke-linecap="round" d="M4.7 20.8c10.5 3.5 6.6 3.6 18.6-2.5-1-1-1.9-1.3-2.9-1L16 18.8"/><path stroke-linecap="round" d="M4.7 15.4h2.9c2.3 0 3.9 1.5 4.4 2h2.9c1.6 0 1.6 2 0 2H9.6M7 12.2c-.5-1.1-.8-2.3-.8-3.5C6.2 4.3 9.7.8 14 .8s7.8 3.5 7.8 7.9c0 2.9-1.5 5.4-3.8 6.8"/><path stroke-linecap="round" d="M19.7 3.3s-.3 1.9-1.7 2.6c-1.4-.3-2.7.7-2.4.7.4 0 .7 1.4.7 1.4.3.3 1 0 1 0 .8.9-1.4 2.4-1.4 2.7 0 .3.9.5.3 1-.5.5-1 .7-1 .7 0 1.7-1.7 1.7-2 1.7-.3 0-1-1.4-1-1.7 0-.3.3-.7.3-1 0-.3-.7-1-.7-1 0-1.4-1-1-2-1S8.8 8 8.8 8s0-2.4 1.7-2.7c1.7-.3 1.7.3 1.7.3.7.7 2 0 2.7 0 0 0 .3-2.4-.3-2.1-.7.3-1.3.1-1.4-.7-.1-1.1 3-1.7 3-1.7"/></g></symbol><symbol viewBox="0 0 24 24" id="icon-globe"><title>globe</title><g fill="none" stroke="currentColor" stroke-width="1.5" stroke-linecap="round" stroke-linejoin="round" stroke-miterlimit="10"><circle cx="12" cy="12" r="11.2"/><path d="M20.3 4.4s-.5 2.7-2.4 3.7c-2-.5-3.9 1-3.4 1s1 2 1 2c.5.5 1.5 0 1.5 0 1.2 1.2-2 3.4-2 3.9s1.2.7.5 1.5c-.7.7-1.5 1-1.5 1 0 2.4-2.4 2.4-2.9 2.4s-1.5-2-1.5-2.4.5-1 .5-1.5-1-1.5-1-1.5c0-2-1.5-1.5-2.9-1.5s-1.5-2-1.5-2 0-3.4 2.4-3.9 2.4.5 2.4.5c1 1 2.9 0 3.9 0 0 0 .5-3.4-.5-2.9s-1.9.1-2-1c-.1-1.5 4.3-2.4 4.3-2.4"/></g></symbol><symbol viewBox="0 0 24 24" id="icon-heart"><title>heart</title><path fill="none" stroke="currentColor" stroke-width="1.5" stroke-linejoin="round" stroke-miterlimit="10" d="M12 23.2s11.2-8.4 11.2-16.3-10-8.5-11.2-.6C10.7-1.5.8-.9.8 7.6S12 23.2 12 23.2z"/></symbol><symbol viewBox="0 0 24 24" id="icon-house"><title>house</title><g fill="none" stroke="currentColor" stroke-width="1.5" stroke-linecap="round" stroke-linejoin="round" stroke-miterlimit="10"><path d="M3.7 13.5v9.8h5.9v-6.8h4.9v6.8h5.9V14M.8 13L12.1 1.8 23.3 13"/></g></symbol><symbol viewBox="0 0 24 24" id="icon-lock"><title>lock</title><g fill="none" stroke="currentColor" stroke-width="1.5" stroke-linejoin="round"><path d="M12.5 14.694a.473.473 0 1 1-.946-.001.473.473 0 0 1 .946.001z"/><path stroke-linecap="round" d="M12.028 15.167V18"/><path d="M4 22.722h16.055V9.5H4zM6.833 6.194a5.194 5.194 0 1 1 10.39 0V9.5H6.832V6.194z"/></g></symbol><symbol viewBox="0 0 24 24" id="icon-logout"><title>logout</title><g fill="none" fill-rule="evenodd" stroke="currentColor" stroke-width="1.5"><path d="M14.5 19.52v2.98h-13v-21h13v4M5.5 12h17M17.5 7.492l5 5-5 5"/></g></symbol><symbol viewBox="0 0 24 24" id="icon-meatball-menu"><title>meatball-menu</title><g fill="none" stroke="currentColor" stroke-width="1.5" stroke-linecap="round" stroke-linejoin="round" stroke-miterlimit="10"><ellipse cx="3.2" cy="12" rx="2.5" ry="2.5"/><ellipse cx="12" cy="12" rx="2.5" ry="2.5"/><ellipse cx="20.8" cy="12" rx="2.5" ry="2.5"/></g></symbol><symbol viewBox="0 0 24 24" id="icon-megaphone"><title>megaphone</title><g fill="none" stroke="currentColor" stroke-width="1.5" stroke-linecap="round" stroke-linejoin="round" stroke-miterlimit="10"><path d="M7.6 7.2v8.5c0 2.7 1.5 5.2 3.9 6.5M23.3 11.7c0 .8-.7 1.5-1.5 1.5h-.5v-4h.5c.8 0 1.5.7 1.5 1.5v1z"/><path d="M4.6 7.2h-1C2 7.2.7 8.5.7 10.2v2c0 1.7 1.3 3 2.9 3h1c8.8 0 12.4 2 16.7 4v-16c-4.3 2-7.9 4-16.7 4z"/></g></symbol><symbol viewBox="0 0 24 24" id="icon-paper-airplane"><title>paper-airplane</title><g fill="none" stroke="currentColor" stroke-width="1.5" stroke-linejoin="round" stroke-miterlimit="10"><path d="M23.2 1.8L.8 11.1l8.7 3.6z"/><path d="M23.2 1.8l-3.8 18.3-9.9-5.4z"/><path d="M9.8 14.7v7.5l3.2-5.6"/></g></symbol><symbol viewBox="0 0 24 24" id="icon-pen"><title>pen</title><path d="M7.687 20.869l-5.928 1.39 1.391-5.926L17.449 2.03a1.835 1.835 0 0 1 2.594 0l1.945 1.944a1.836 1.836 0 0 1 0 2.594l-14.301 14.3zm13.655-13.65l-4.54-4.54m3.232 5.848l-4.53-4.551M7.919 20.639L3.38 16.1" fill="none" stroke="currentColor" stroke-linecap="round" stroke-linejoin="round"/></symbol><symbol viewBox="0 0 24 24" id="icon-people"><title>people</title><g fill="none" stroke="currentColor" stroke-width="1.5" stroke-linejoin="round" stroke-miterlimit="10"><path d="M8 21.2h7.1v-4.5c0-.5-2.6-2.2-5-3.2v-2.1s1-.3 1-2.6c.7 0 1-2.1 0-2.1 0-.2.7-1.3.4-2.6C11 2 6.1 2 5.7 4.1c-2-.4-.5 2.3-.5 2.6-1 0-.7 2.1 0 2.1 0 2.2 1 2.6 1 2.6v2.1c-2.5 1-5.4 2.6-5.4 3.1v4.6H8z"/><path stroke-linecap="round" d="M19.2 21.2h4.1v-4.6c0-.5-2.5-1.2-4.4-2.1V13s1-.3 1-2.1c.5 0 .7-2.1 0-2.1 0-.2.8-1.1.5-2.1-.5-1.5-4.4-1.5-4.9 0-1.7-.1-.5 2-.5 2.2-.8 0-.5 2.1 0 2.1 0 1.7 1 2.1 1 2.1"/></g></symbol><symbol viewBox="0 0 25 19" id="icon-person-card"><title>person-card</title><g fill="none" stroke="currentColor" stroke-linecap="round" stroke-width="1.5"><path d="M1 1v17h4v-1.5c0-.962.787-1.75 1.75-1.75.962 0 1.75.788 1.75 1.75V18h8v-1.5c0-.962.787-1.75 1.75-1.75.962 0 1.75.788 1.75 1.75V18h4V1H1zm12 10h8m-8-2h8m-8-2h8m-8-2h4"/><path d="M7 12H2.5v-2S4 8.5 6 8.5v-1s-1-.5-1-2c0-1 0-2 2-2s2 1 2 2c0 1.5-1 2-1 2v1c2 0 3.5 1.5 3.5 1.5v2H7z"/></g></symbol><symbol viewBox="0 0 24 24" id="icon-phone"><title>phone</title><path fill="none" stroke="currentColor" stroke-width="1.5" stroke-linecap="round" stroke-linejoin="round" stroke-miterlimit="10" d="M9 7.3c.9-.9.9-2.4 0-3.3L6.5 1.4c-.9-.8-2.4-.8-3.3 0L1.8 2.9C.6 4 .5 5.9 1.3 7.3c4 6 9.4 11.3 15.4 15.4 1.5.9 3.2.7 4.5-.4l1.4-1.3c.9-.9.9-2.4 0-3.3L20 15.1c-.9-.9-2.4-.9-3.3 0l-.8.8c-2.7-2.3-5.4-4.9-7.7-7.7l.8-.9z"/></symbol><symbol viewBox="0 0 24 24" id="icon-pin"><title>pin</title><g fill="none" stroke="currentColor" stroke-width="1.5" stroke-linecap="round" stroke-linejoin="round" stroke-miterlimit="10"><path d="M19.2 8.1c0 4.1-7.2 15.2-7.2 15.2S4.8 12.2 4.8 8.1 7.9.8 12 .8s7.2 3.2 7.2 7.3z"/><ellipse cx="12" cy="8.1" rx="2.9" ry="2.9"/></g></symbol><symbol viewBox="0 0 24 24" id="icon-printer"><title>printer</title><g fill="none" stroke="currentColor" stroke-width="1.5" stroke-linecap="round" stroke-linejoin="round" stroke-miterlimit="10"><path d="M5.6 18.2H3.5c-1 0-1.8-.9-1.8-2.1V9.9c0-1.2.8-2.1 1.8-2.1h16.9c1 0 1.8.9 1.8 2.1v6.3c0 1.2-.8 2.1-1.8 2.1h-2.1M5.6 7.8v-6h12.8v5.8"/><path d="M5.8 13.8h12.5v8.5H5.8zM8.8 16.8h6.4M8.8 19.2h6.4"/></g></symbol><symbol viewBox="0 0 24 24" id="icon-profile"><title>profile</title><g fill="none" stroke="currentColor" stroke-width="1.5" stroke-linejoin="round" stroke-miterlimit="10"><path d="M10 14.9s-1.5-.5-1.5-2.9c-.8 0-.8-2 0-2 0-.3-1.5-3.9 1-3.4.5-2 5.9-2 6.4 0 .3 1.4-.5 3.2-.5 3.4.8 0 .8 2 0 2 0 2.4-1.5 2.9-1.5 2.9v2.4c2.4.9 4.8 1.7 6.1 2.5 2-2 3.2-4.8 3.2-7.9C23.2 5.7 18.2.7 12 .7S.8 5.8.8 12c0 3.1 1.2 5.9 3.3 7.9 1.3-.9 3.9-1.7 6-2.5v-2.5z"/><path d="M4 19.9c2 2.1 4.9 3.3 8 3.3 3.1 0 6-1.3 8-3.4"/></g></symbol><symbol viewBox="0 0 24 24" id="icon-question-mark"><title>question-mark</title><circle fill="none" stroke="currentColor" stroke-width="1.5" stroke-linecap="round" stroke-linejoin="round" stroke-miterlimit="10" cx="12" cy="12" r="11"/><path fill="none" stroke="currentColor" stroke-width="1.5" stroke-linecap="round" stroke-linejoin="round" stroke-miterlimit="10" d="M9 9.3c0-1.7 1.3-3 3-3s3 1.3 3 3-1.3 3-3 3v3"/><path fill="none" stroke="currentColor" stroke-linejoin="round" stroke-miterlimit="10" d="M12.5 18c0 .3-.2.5-.5.5s-.5-.2-.5-.5.2-.5.5-.5.5.2.5.5z"/></symbol><symbol viewBox="0 0 24 24" id="icon-search"><title>search</title><path fill="currentColor" d="M9.118 0c5.036 0 9.119 3.925 9.119 8.768a8.49 8.49 0 0 1-1.95 5.422l7.499 7.181c.35.338.257.935-.18 1.356l-.93.894c-.437.42-1.06.51-1.41.173l-7.678-7.412a9.344 9.344 0 0 1-4.47 1.153C4.082 17.535 0 13.61 0 8.768 0 3.925 4.082 0 9.118 0zm0 2.769c-3.445 0-6.239 2.686-6.239 5.999 0 3.313 2.794 5.999 6.24 5.999 3.445 0 6.238-2.686 6.238-6 0-3.312-2.793-5.998-6.239-5.998z"/></symbol><symbol viewBox="0 0 24 24" id="icon-trash"><title>trash</title><g fill="none" stroke="currentColor" stroke-linecap="round" stroke-linejoin="round"><path d="M4.439 22.417h14.997V3.75H4.439z"/><path d="M8.563 3.8h7.499V1H8.563zM1.69 3.75h20.62M9.054 6.867v11.2M12 6.867v11.2m2.945-11.2v11.2"/></g></symbol><symbol viewBox="0 0 24 24" id="icon-twitter"><title>twitter</title><path d="M24 4.9c-.9.4-1.6.4-2.4 0 1-.6 1-1 1.4-2.1-.9.6-2 1-3.1 1.2-.9-1-2.1-1.6-3.5-1.6-2.7 0-4.8 2.2-4.8 4.8 0 .4 0 .7.1 1.1-4-.2-7.6-2.1-10-5.1-.4.8-.6 1.7-.6 2.5 0 1.7.9 3.2 2.2 4-.9 0-1.6-.2-2.3-.5v.1c0 2.3 1.7 4.3 3.9 4.7-.7.2-1.5.2-2.2.1.6 1.9 2.4 3.3 4.5 3.4-2.1 1.6-4.6 2.3-7.2 2 2.1 1.4 4.7 2.2 7.4 2.2 8.9 0 13.8-7.4 13.8-13.8v-.6c1-.8 2.1-1.4 2.8-2.4z" fill="currentColor"/></symbol><symbol viewBox="0 0 24 24" id="icon-upload"><title>upload</title><g fill="none" stroke="currentColor" stroke-linecap="round" stroke-width="1.5"><path d="M9.5 24.5V7.885M13.5 12.885l-4-5-4 5"/><path d="M7 17.5H1.5v-16h16v16H12"/></g></symbol></svg>