<?xml version="1.0" encoding="utf-8"?>
<!-- Generator: Adobe Illustrator 19.2.1, SVG Export Plug-In . SVG Version: 6.00 Build 0)  -->
<svg version="1.1" id="Layer_1" xmlns="http://www.w3.org/2000/svg" xmlns:xlink="http://www.w3.org/1999/xlink" x="0px" y="0px"
	 viewBox="0 0 284.6 220.2" style="enable-background:new 0 0 284.6 220.2;" xml:space="preserve">
<style type="text/css">
	.st0{fill:url(#SVGID_1_);}
	.st1{fill:#92278F;}
	.st2{fill:url(#SVGID_2_);}
	.st3{fill:#00A1E4;}
</style>
<g>
	
		<radialGradient id="SVGID_1_" cx="667.7269" cy="276.0723" r="82.8355" gradientTransform="matrix(1.6005 0 0 -1.6005 -895.9531 417.7222)" gradientUnits="userSpaceOnUse">
		<stop  offset="0" style="stop-color:#C6168D"/>
		<stop  offset="0.5824" style="stop-color:#92278F"/>
		<stop  offset="1" style="stop-color:#5C2D91"/>
	</radialGradient>
	<path class="st0" d="M255.3,0h-82.9c-6.1,0-11.1,5-11.1,11.1c0,1.9,0.4,3.7,1.3,5.3l41.6,72.1c1.9,3.3,5.5,5.6,9.6,5.6
		s7.7-2.2,9.6-5.6L265,16.4c0.9-1.6,1.3-3.4,1.3-5.3C266.4,5,261.5,0,255.3,0z"/>
	<g>
		<path class="st1" d="M272.4,6c0-3.3,2.7-6.1,6.1-6.1l0,0c3.4,0,6.1,2.7,6.1,6.1l0,0c0,3.4-2.7,6.1-6.1,6.1l0,0
			C275.1,12.1,272.4,9.4,272.4,6L272.4,6z M273.6,6c0,2.7,2.2,4.8,4.8,4.8l0,0c2.7,0,4.8-2.2,4.8-4.8l0,0c0-2.7-2.2-4.8-4.8-4.8l0,0
			C275.8,1.2,273.6,3.4,273.6,6L273.6,6z"/>
		<g>
			<path class="st1" d="M280.7,9.1h-0.6c-0.2,0-0.3,0-0.5-0.2L278,6.8h-0.5v1.9c0,0.2-0.1,0.3-0.3,0.3h-0.4c-0.3,0-0.4-0.1-0.4-0.3
				V3.2c0-0.3,0.2-0.3,0.4-0.3h1.8c1,0,1.2,0.1,1.6,0.4c0.3,0.3,0.5,0.9,0.5,1.7c0,1-0.4,1.6-1.3,1.7l1.6,1.9
				C281,8.8,281,9.1,280.7,9.1z M279.2,3.9c-0.2-0.1-1.4-0.1-1.7-0.1v2h1.2c0.4,0,0.6-0.1,0.7-0.2c0.1-0.1,0.1-0.2,0.1-0.7
				C279.6,4.3,279.5,4.1,279.2,3.9z"/>
		</g>
	</g>
	<g>
		
			<radialGradient id="SVGID_2_" cx="568.1293" cy="261.2192" r="180.0036" gradientTransform="matrix(1.6005 0 0 -1.6005 -895.9531 417.7222)" gradientUnits="userSpaceOnUse">
			<stop  offset="0" style="stop-color:#00AEEF"/>
			<stop  offset="0.5769" style="stop-color:#00A1E4"/>
			<stop  offset="1" style="stop-color:#0061AF"/>
		</radialGradient>
		<path class="st2" d="M126.3,102.3L126.3,102.3L126.3,102.3L126.3,102.3z M199.3,103.7l-0.5-0.8l-51.5-89.1l-0.9-1.6
			C142,4.6,133.7,0,124.4,0H82c-4.7,0-8.6,3.8-8.6,8.6c0,1.5,0.3,2.9,1,4.1l51.8,89.7c2.4,4,3.7,8.7,3.7,13.7
			c0,4.9-1.3,9.4-3.5,13.4l-45,78c-0.7,1.2-1,2.6-1,4.1c0,4.7,3.8,8.6,8.6,8.6h43.5c9.3,0,17.7-4.7,22-12.2l0.9-1.6l43.3-75l0.8-1.4
			c2.2-3.8,3.2-8.2,3.2-12.9C202.8,112.2,201.6,107.6,199.3,103.7z"/>
	</g>
	<g>
		<path class="st3" d="M79.7,139.9c-0.8,0-1.6,0.3-2.3,0.5c-2.4,0.5-5.1,1.1-8,1.1c-1.6,0-3-0.3-4-0.7c-2-0.9-2.2-3.5-2.2-6.8h16.1
			c2.3,0,2.8-0.4,2.8-4c0-4.2-0.4-8.4-2.4-11.3c-1.9-2.7-5.2-4.1-10.7-4.1c-5.8,0-9.4,1.5-11.4,4.4s-2.6,6.8-2.6,12.6
			c0,6.5,0.9,10.8,3.7,13.4c2.2,2,5.7,3.1,10.7,3.1c2.8,0,6.7-0.3,9.9-0.9c2-0.3,2.4-1.4,2.4-2.9c0-0.7,0-1.5-0.1-2.2
			C81.3,141.1,80.7,139.9,79.7,139.9z M63.2,127.5c0-4.8,1-6.5,5.7-6.5c4.5,0,5.1,1.7,5.1,5.8c0,0,0,0.8,0,1.3H63.2V127.5z
			 M39.7,114.5c-3.6,0-6.7,1.2-8.9,2.2v-12.2c0-1.3-0.5-2.8-2.6-2.8h-3c-1.9,0-2.9,0.6-2.9,2.8v39.9c0,1.6,0.5,2.6,2.4,2.6h3.5
			c2,0,2.6-1.1,2.6-3v-15c0-4.7,1-6.3,5.6-6.3c4.4,0,5,1.7,5,5.7c0,0,0,0.8,0,1.2l0,0c0,0.6,0,1.4,0,2.2v12.4c0,2,0.7,3,2.4,3h3.5
			c2,0,2.6-1.1,2.6-3V124C49.8,119.6,47.8,114.5,39.7,114.5z"/>
		<g>
			<path class="st3" d="M15.5,122.4H8.4v13.2c0,3.1,0.1,4.3,0.4,4.8c0.2,0.3,0.5,0.5,1,0.5c1.8,0,3.9-1,5.4-1s1.8,1.1,1.8,1.8v2.4
				c0,2.4-0.7,3.1-2.8,3.3c-2.1,0.2-3.6,0.3-5.7,0.3c-7,0-8.5-2.6-8.5-10.4v-15h-1.8c-1.2,0-1.6-0.9-1.6-1.9v-2.8
				c0-1.7,0.7-2.2,1.8-2.2H0v-5.3c0-2.2,0.9-2.9,2.8-2.9h3c2,0,2.6,1.6,2.6,2.9v5.3h6.5c1.4,0,2.2,0.2,2.2,2.1v2.3
				C17.1,122.1,16.7,122.4,15.5,122.4z"/>
		</g>
	</g>
	<g>
		<path class="st1" d="M170.6,199.3l5.1,8.6l4.8,2.8c0.7,0.4,0.8,0.9,0.4,1.5l-0.5,1c-0.4,0.7-0.8,0.9-1.6,0.5l-4.6-2.7l-10.5-0.1
			c-0.3,0-0.6,0-0.8-0.2c-0.5-0.3-0.4-0.9-0.2-1.3l0.7-1.2c0.4-0.7,0.8-0.7,1.3-0.7l7.2,0.1l-3.7-6.2c-0.3-0.4-0.4-0.8,0-1.5l0.6-1
			c0.3-0.6,0.8-0.7,1.2-0.4C170.2,198.6,170.5,199,170.6,199.3z"/>
		<path class="st1" d="M193,191.1l-0.5,0.9c-0.4,0.7-0.9,0.7-1.5,0.4l-9.4-4.6c0.4,0.5,0.9,1.1,1.4,1.6c1.7,2,3.5,4,4.6,5.4
			c0.4,0.5,0.6,1,0.2,1.7l-0.3,0.6c-0.4,0.7-0.9,0.8-1.6,0.7c-1.7-0.2-4.4-0.8-7-1.2c-0.6-0.1-1.4-0.3-2-0.4l8.7,5.8
			c0.6,0.4,0.8,0.8,0.4,1.5l-0.5,0.9c-0.4,0.7-0.9,1-1.7,0.5l-12.3-8.6c-0.8-0.5-0.6-1.1-0.3-1.6l0.7-1.2c0.4-0.6,0.7-0.8,1.3-0.7
			c2.5,0.4,6.9,1.2,10.3,1.8c-2.2-2.6-5.2-6-6.7-8c-0.4-0.5-0.4-0.9,0-1.5l0.7-1.2c0.3-0.5,0.7-1,1.5-0.6l13.6,6.3
			C193.5,189.8,193.4,190.4,193,191.1z"/>
		<path class="st1" d="M200,179.4c-0.5,1-0.8,1.6-1.3,2.6c-0.5,0.8-1.1,1.8-1.8,2.5c-2.5,2.7-5.6,1.8-9.4-0.4
			c-6.5-3.8-6.6-6.5-4.1-10.9c0.6-1,1-1.6,1.6-2.5s0.9-1,1.4-0.7l0.7,0.4c0.8,0.5,1,0.8,0.6,1.5c-0.5,0.8-0.8,1.2-1.5,2.3
			c-0.4,0.7-1,1.9-1.1,2.6c-0.2,1.6,1.6,2.7,4.1,4.2s4.5,2.5,6,0.7c0.3-0.4,0.7-1,1.1-1.6c0.7-1.2,0.8-1.6,1.3-2.5
			c0.4-0.7,0.8-0.7,1.6-0.2l0.7,0.4C200.4,178.1,200.4,178.5,200,179.4z"/>
		<path class="st1" d="M208.1,164.9l-0.7,1.2c-0.4,0.7-0.8,0.7-1.4,0.6l-3.3-0.6c-0.5,1-0.9,1.7-1.5,2.7c-0.5,0.9-1,1.8-1.5,2.5
			l2.1,2.4c0.5,0.5,0.7,0.9,0.3,1.7l-0.6,1c-0.4,0.8-0.7,0.8-1,0.6c-0.1-0.1-0.4-0.3-0.6-0.6l-10.1-11.9c-0.5-0.6-0.7-1.1-0.2-1.9
			l0.5-0.9c0.5-0.8,0.9-0.9,1.7-0.8l15.7,2.7c0.1,0,0.3,0,0.4,0.1C208.5,164.1,208.3,164.6,208.1,164.9z M193.7,164.4l4.2,4.8
			c0.3-0.5,0.6-1.1,1-1.8c0.4-0.7,0.7-1.1,1.1-1.8L193.7,164.4z"/>
	</g>
</g>
</svg>
