<?xml version="1.0" encoding="utf-8"?>
<!-- Generator: Adobe Illustrator 19.2.1, SVG Export Plug-In . SVG Version: 6.00 Build 0)  -->
<svg version="1.1" id="Layer_1" xmlns="http://www.w3.org/2000/svg" xmlns:xlink="http://www.w3.org/1999/xlink" x="0px" y="0px"
	 viewBox="0 0 175.7 135.3" style="enable-background:new 0 0 175.7 135.3;" xml:space="preserve">
<style type="text/css">
	.st0{fill:#FFFFFF;}
	.st1{fill:#EC7840;}
</style>
<g>
	<polygon class="st0" points="0,-18.1 175.2,-18.1 175.2,157.3 0,157.3 	"/>
	<path class="st1" d="M10.4,42.3c0.2-1,0.8-1.7,1.7-1.7c0.9,0,1.6,0.8,1.6,1.7H10.4L10.4,42.3z M16.5,43.8c0.1-2.8-1.3-5-4.3-5
		c-2.4,0-4.4,1.8-4.4,4.3c0,2.7,1.8,4.4,4.5,4.4c1.8,0,3.6-0.8,4.1-2.7h-2.5c-0.3,0.6-0.9,0.9-1.5,0.9c-1.1,0-1.8-0.7-1.8-1.9
		L16.5,43.8L16.5,43.8z"/>
	<polygon class="st1" points="17.9,36 20.6,36 20.6,47.3 17.9,47.3 	"/>
	<path class="st1" d="M22.6,39.1h2.7v8.2h-2.7V39.1L22.6,39.1z M25.3,38h-2.7V36h2.7V38L25.3,38z"/>
	<path class="st1" d="M27.2,39.1h2.6v1.1h0c0.5-0.8,1.4-1.4,2.4-1.4c1,0,1.9,0.3,2.4,1.3c0.6-0.9,1.5-1.3,2.6-1.3
		c2.6,0,2.9,2,2.9,3.5v4.9h-2.7v-4.8c0-0.9-0.4-1.4-1.1-1.4c-1.2,0-1.3,0.9-1.3,2.2v4h-2.7v-4.7c0-1-0.3-1.6-1-1.6
		c-1,0-1.4,0.5-1.4,2.2v4h-2.7L27.2,39.1L27.2,39.1z"/>
	<path class="st1" d="M42,39.1h2.7v8.2H42L42,39.1L42,39.1z M44.7,38H42V36h2.7V38L44.7,38z"/>
	<path class="st1" d="M46.6,39.1h2.6v1.1h0c0.5-0.8,1.6-1.4,2.6-1.4c2.7,0,3,2,3,3.2v5.3h-2.7v-4c0-1.1,0.1-2.3-1.3-2.3
		c-1,0-1.5,0.8-1.5,1.8v4.5h-2.7L46.6,39.1L46.6,39.1z"/>
	<path class="st1" d="M58.8,44.9c0-0.6,0.5-0.9,1.1-1c0.6-0.2,1.3-0.2,1.7-0.4c0.1,1.7-0.4,2.4-1.6,2.4
		C59.3,45.8,58.8,45.6,58.8,44.9L58.8,44.9z M58.9,41.6c0.1-0.7,0.6-1,1.3-1c0.6,0,1.3,0.2,1.3,0.9c0,0.5-0.3,0.7-0.7,0.8
		c-1.9,0.4-4.8,0.2-4.8,2.8c0,1.7,1.2,2.5,2.8,2.5c1,0,2-0.3,2.7-1c0,0.3,0.1,0.5,0.2,0.8h2.7c-0.3-0.6-0.3-1.4-0.3-2.1v-3.6
		c0-2.3-1.9-2.7-3.8-2.7c-0.9,0-1.9,0.2-2.6,0.6c-0.7,0.4-1.2,1.1-1.3,2.2L58.9,41.6L58.9,41.6z"/>
	<path class="st1" d="M71.1,40.8h-1.7v3.7c0,0.6,0.4,0.8,1,0.8c0.2,0,0.5,0,0.7,0v2c-0.5,0-1,0.1-1.5,0.1c-2.3,0-2.9-0.7-2.9-2.9
		v-3.7h-1.4v-1.7h1.4v-2.5h2.7v2.5h1.7L71.1,40.8L71.1,40.8z"/>
	<path class="st1" d="M72.5,39.1h2.7v8.2h-2.7V39.1L72.5,39.1z M75.2,38h-2.7V36h2.7V38L75.2,38z"/>
	<path class="st1" d="M77.1,39.1h2.6v1.1h0c0.5-0.8,1.6-1.4,2.6-1.4c2.7,0,3,2,3,3.2v5.3h-2.7v-4c0-1.1,0.1-2.3-1.4-2.3
		c-1,0-1.5,0.8-1.5,1.8v4.5h-2.7V39.1L77.1,39.1z"/>
	<path class="st1" d="M92.3,42.9c0,1-0.5,1.9-1.6,1.9c-1.1,0-1.6-1-1.6-1.9c0-1,0.4-2.1,1.6-2.1C91.9,40.9,92.3,41.9,92.3,42.9
		L92.3,42.9z M94.9,39.1h-2.6v1h0c-0.5-0.8-1.2-1.3-2.2-1.3c-2.3,0-3.6,1.8-3.6,4c0,2.3,1.1,4.1,3.6,4.1c0.9,0,1.7-0.4,2.2-1.2h0
		v0.8c0,1-0.1,1.9-1.4,1.9c-0.4,0-0.7,0-1-0.2c-0.3-0.1-0.4-0.3-0.5-0.7h-2.7c0.3,2.2,2.1,2.6,4,2.6c3.9,0,4.1-2.5,4.1-3.9
		L94.9,39.1L94.9,39.1z"/>
	<path class="st1" d="M102,39.1h2.6v1.4h0c0.4-1,1.3-1.6,2.5-1.6c0.2,0,0.4,0,0.6,0.1v2.4c-0.3-0.1-0.7-0.2-1-0.2
		c-1.3,0-2,0.9-2,1.9v4.1H102V39.1L102,39.1z"/>
	<path class="st1" d="M111.2,44.9c0-0.6,0.5-0.9,1.1-1c0.6-0.2,1.3-0.2,1.7-0.4c0.1,1.7-0.4,2.4-1.6,2.4
		C111.8,45.8,111.2,45.6,111.2,44.9L111.2,44.9z M111.4,41.6c0.1-0.7,0.6-1,1.3-1c0.6,0,1.3,0.2,1.3,0.9c0,0.5-0.3,0.7-0.7,0.8
		c-1.9,0.4-4.8,0.2-4.8,2.8c0,1.7,1.2,2.5,2.8,2.5c1,0,2-0.3,2.7-1c0,0.3,0.1,0.5,0.2,0.8h2.7c-0.3-0.6-0.3-1.4-0.3-2.1v-3.6
		c0-2.3-1.9-2.7-3.8-2.7c-0.9,0-1.9,0.2-2.6,0.6c-0.7,0.4-1.2,1.1-1.3,2.2L111.4,41.6L111.4,41.6z"/>
	<path class="st1" d="M123.7,42.1c0-0.7-0.6-1.2-1.3-1.2c-1.5,0-1.7,1.3-1.7,2.4c0,1.1,0.5,2.1,1.6,2.1c0.9,0,1.4-0.5,1.5-1.4h2.6
		c-0.2,2.2-2,3.5-4.1,3.5c-2.5,0-4.3-1.7-4.3-4.2c0-2.6,1.7-4.5,4.3-4.5c2,0,3.9,1.1,4.1,3.2H123.7L123.7,42.1z"/>
	<path class="st1" d="M127.9,39.1h2.7v8.2h-2.7V39.1L127.9,39.1z M130.6,38h-2.7V36h2.7V38L130.6,38z"/>
	<path class="st1" d="M134.6,44.6c0,0.4,0.2,0.7,0.4,0.9c0.3,0.2,0.6,0.3,1,0.3c0.5,0,1.3-0.2,1.3-0.9c0-0.6-0.8-0.8-1.3-0.9
		c-1.7-0.4-3.8-0.5-3.8-2.7c0-2,2.1-2.5,3.8-2.5c1.8,0,3.7,0.5,3.8,2.7h-2.5c0-0.3-0.1-0.6-0.3-0.7c-0.2-0.1-0.5-0.2-0.9-0.2
		c-0.4,0-1.2,0-1.2,0.6c0,0.8,1.8,0.9,3,1.2c1.7,0.3,2.1,1.5,2.1,2.2c0,2.2-2.1,2.9-3.9,2.9c-2,0-3.9-0.6-4-2.9L134.6,44.6
		L134.6,44.6z"/>
	<path class="st1" d="M141.3,39.1h2.6v1.1h0c0.5-0.8,1.4-1.4,2.4-1.4c1,0,2,0.3,2.4,1.3c0.7-0.9,1.5-1.3,2.6-1.3
		c2.6,0,2.9,2,2.9,3.5v4.9h-2.7v-4.8c0-0.9-0.4-1.4-1.1-1.4c-1.2,0-1.3,0.9-1.3,2.2v4h-2.7v-4.7c0-1-0.3-1.6-1-1.6
		c-1,0-1.4,0.5-1.4,2.2v4h-2.7L141.3,39.1L141.3,39.1z"/>
	<path class="st1" d="M10.4,58.7c0.2-1,0.8-1.7,1.7-1.7c0.9,0,1.6,0.8,1.6,1.7H10.4L10.4,58.7z M16.5,60.2c0.1-2.8-1.3-5-4.3-5
		c-2.4,0-4.4,1.8-4.4,4.3c0,2.7,1.8,4.4,4.5,4.4c1.8,0,3.6-0.8,4.1-2.7h-2.5c-0.3,0.6-0.9,0.9-1.5,0.9c-1.1,0-1.8-0.7-1.8-1.9
		L16.5,60.2L16.5,60.2z"/>
	<path class="st1" d="M17.8,55.5h2.6v1.1h0c0.5-0.8,1.4-1.4,2.4-1.4c1,0,2,0.3,2.4,1.3c0.6-0.9,1.5-1.3,2.6-1.3c2.6,0,2.9,2,2.9,3.5
		v4.9H28v-4.8c0-0.9-0.4-1.4-1.1-1.4c-1.2,0-1.3,0.9-1.3,2.2v4h-2.7V59c0-1-0.3-1.6-1-1.6c-1,0-1.4,0.6-1.4,2.2v4h-2.7L17.8,55.5
		L17.8,55.5z"/>
	<path class="st1" d="M36.7,57.3c1.2,0,1.6,1.2,1.6,2.2c0,1.1-0.4,2.4-1.6,2.4c-1.2,0-1.6-0.9-1.6-2.4C35.1,57.8,36,57.3,36.7,57.3
		L36.7,57.3z M32.5,66.4h2.7v-3.6h0c0.6,0.7,1.3,1.1,2.3,1.1c2.3,0,3.5-2,3.5-4.2c0-2.3-1.1-4.5-3.7-4.5c-1,0-1.7,0.4-2.3,1.2h0
		v-0.9h-2.6L32.5,66.4L32.5,66.4z"/>
	<path class="st1" d="M44.9,59.6c0-1,0.4-2.3,1.6-2.3c1.3,0,1.6,1.2,1.6,2.3c0,1-0.4,2.3-1.6,2.3C45.3,61.8,44.9,60.6,44.9,59.6
		L44.9,59.6z M42.2,59.6c0,2.5,1.8,4.3,4.3,4.3c2.6,0,4.3-1.9,4.3-4.3c0-2.5-1.8-4.3-4.3-4.3C44,55.2,42.2,57.1,42.2,59.6L42.2,59.6
		z"/>
	<polygon class="st1" points="62.2,63.7 59.5,63.7 58.2,58.2 58.1,58.2 56.9,63.7 54.1,63.7 51.6,55.5 54.3,55.5 55.7,60.8 
		55.7,60.8 56.9,55.5 59.4,55.5 60.6,60.8 60.7,60.8 62,55.5 64.8,55.5 	"/>
	<path class="st1" d="M68,58.7c0.2-1,0.8-1.7,1.7-1.7c0.9,0,1.6,0.8,1.6,1.7H68L68,58.7z M74,60.2c0.1-2.8-1.3-5-4.3-5
		c-2.4,0-4.4,1.8-4.4,4.3c0,2.7,1.8,4.4,4.5,4.4c1.8,0,3.6-0.8,4.1-2.7h-2.5c-0.3,0.6-0.9,0.9-1.5,0.9c-1.1,0-1.8-0.7-1.8-1.9
		L74,60.2L74,60.2z"/>
	<path class="st1" d="M75.4,55.5h2.6v1.4h0c0.4-1,1.3-1.6,2.5-1.6c0.2,0,0.4,0,0.6,0.1v2.4c-0.3-0.1-0.7-0.2-1-0.2
		c-1.3,0-2,0.9-2,1.9v4.1h-2.7L75.4,55.5L75.4,55.5z"/>
	<path class="st1" d="M82.3,55.5H85v8.2h-2.7V55.5L82.3,55.5z M85,54.4h-2.7v-2.1H85V54.4L85,54.4z"/>
	<path class="st1" d="M86.9,55.5h2.6v1.1h0c0.5-0.8,1.6-1.4,2.6-1.4c2.7,0,3,2,3,3.2v5.3h-2.7v-4c0-1.1,0.1-2.3-1.3-2.3
		c-1,0-1.5,0.9-1.5,1.8v4.5h-2.7L86.9,55.5L86.9,55.5z"/>
	<path class="st1" d="M102.5,59.3c0,1-0.5,1.9-1.6,1.9c-1.1,0-1.6-1-1.6-1.9c0-1,0.4-2.1,1.6-2.1C102.1,57.3,102.5,58.3,102.5,59.3
		L102.5,59.3z M105,55.5h-2.6v1h0c-0.5-0.8-1.2-1.3-2.2-1.3c-2.3,0-3.6,1.8-3.6,4c0,2.3,1.1,4.1,3.6,4.1c0.9,0,1.7-0.4,2.2-1.2h0
		v0.8c0,1-0.1,1.9-1.4,1.9c-0.4,0-0.7,0-1-0.2c-0.3-0.1-0.4-0.3-0.5-0.7h-2.7c0.3,2.2,2.1,2.5,4,2.5c3.9,0,4.1-2.4,4.1-3.8L105,55.5
		L105,55.5z"/>
	<polygon class="st1" points="121.8,63.7 119.1,63.7 117.8,58.2 117.8,58.2 116.5,63.7 113.7,63.7 111.2,55.5 113.9,55.5 
		115.3,60.8 115.3,60.8 116.5,55.5 119.1,55.5 120.3,60.8 120.3,60.8 121.6,55.5 124.4,55.5 	"/>
	<path class="st1" d="M127.6,59.6c0-1,0.4-2.3,1.6-2.3c1.3,0,1.6,1.2,1.6,2.3c0,1-0.4,2.3-1.6,2.3C128,61.8,127.6,60.6,127.6,59.6
		L127.6,59.6z M124.9,59.6c0,2.5,1.8,4.3,4.3,4.3c2.6,0,4.3-1.9,4.3-4.3c0-2.5-1.8-4.3-4.3-4.3C126.7,55.2,124.9,57.1,124.9,59.6
		L124.9,59.6z"/>
	<path class="st1" d="M135,55.5h2.6v1.1h0c0.5-0.8,1.4-1.4,2.4-1.4c1,0,2,0.3,2.4,1.3c0.7-0.9,1.5-1.3,2.6-1.3c2.6,0,2.9,2,2.9,3.5
		v4.9h-2.7v-4.8c0-0.9-0.4-1.4-1.1-1.4c-1.2,0-1.3,0.9-1.3,2.2v4H140V59c0-1-0.3-1.6-1-1.6c-1,0-1.4,0.6-1.4,2.2v4H135V55.5
		L135,55.5z"/>
	<path class="st1" d="M151.9,58.7c0.2-1,0.8-1.7,1.7-1.7c0.9,0,1.6,0.8,1.6,1.7H151.9L151.9,58.7z M158,60.2c0.1-2.8-1.3-5-4.3-5
		c-2.4,0-4.4,1.8-4.4,4.3c0,2.7,1.8,4.4,4.5,4.4c1.8,0,3.6-0.8,4.1-2.7h-2.5c-0.3,0.6-0.9,0.9-1.5,0.9c-1.1,0-1.8-0.7-1.8-1.9
		L158,60.2L158,60.2z"/>
	<path class="st1" d="M159.3,55.5h2.6v1.1h0c0.5-0.8,1.6-1.4,2.6-1.4c2.7,0,3,2,3,3.2v5.3h-2.7v-4c0-1.1,0.1-2.3-1.3-2.3
		c-1,0-1.5,0.9-1.5,1.8v4.5h-2.7L159.3,55.5L159.3,55.5z"/>
	<path class="st1" d="M25.5,71.9L21,87.2H21l-4.5-15.3H8.3l6.1,16.3c0.5,1.3,2,4.9,2,6.2c0,1.6-1.3,2.6-3.1,2.6h-2.7v6.1h6.5
		c3.4-0.3,5.5-1.6,7-5.7l8.1-22.2l6.3,20.1h7.8L50,79.7H50l3.7,15.6h7.8l7.4-23.5h-7.9L57.2,87h-0.1l-3.5-15.2h-7.4L43,87.1h-0.1
		l-4-15.2L25.5,71.9L25.5,71.9z"/>
	<path class="st1" d="M84.6,80.5c0-2-1.8-3.4-3.8-3.4c-4.3,0-5,3.7-5,6.9c0,3,1.3,6.2,4.6,6.2c2.7,0,4-1.5,4.4-4h7.5
		c-0.7,6.3-5.6,9.9-11.9,9.9c-7.1,0-12.4-4.8-12.4-12c0-7.5,4.8-12.8,12.4-12.8c5.9,0,11.1,3.1,11.6,9.3L84.6,80.5L84.6,80.5z"/>
	<path class="st1" d="M101.5,88.6c0-1.9,1.5-2.6,3.2-3c1.7-0.5,3.7-0.6,4.8-1.3c0.2,4.8-1,6.9-4.7,6.9
		C103,91.3,101.5,90.5,101.5,88.6L101.5,88.6z M101.9,79.1c0.4-2,1.7-2.9,3.9-2.9c1.6,0,3.7,0.7,3.7,2.4c0,1.4-0.7,1.9-2,2.2
		c-5.4,1.1-13.7,0.5-13.7,8.2c0,4.8,3.5,7.1,8,7.1c2.8,0,5.8-0.8,7.8-2.9c0.1,0.8,0.2,1.5,0.5,2.2h7.8c-0.9-1.9-0.9-4-0.9-6V79.1
		c0-6.7-5.4-7.9-11-7.9c-2.7,0-5.4,0.5-7.5,1.6c-2.1,1.2-3.5,3.2-3.7,6.3H101.9L101.9,79.1z"/>
</g>
</svg>
