<?xml version="1.0" encoding="utf-8"?>
<!-- Generator: Adobe Illustrator 18.0.0, SVG Export Plug-In . SVG Version: 6.00 Build 0)  -->
<!DOCTYPE svg PUBLIC "-//W3C//DTD SVG 1.1//EN" "http://www.w3.org/Graphics/SVG/1.1/DTD/svg11.dtd">
<svg version="1.1" id="Layer_1" xmlns="http://www.w3.org/2000/svg" xmlns:xlink="http://www.w3.org/1999/xlink" x="0px" y="0px"
	 viewBox="0 0 24 24" enable-background="new 0 0 24 24" xml:space="preserve">
<g>
	<g stroke-width="1">
		<line fill="none" stroke="#000000" stroke-linejoin="round" stroke-miterlimit="10" x1="4.5" y1="8" x2="4.5" y2="16"/>
		<line fill="none" stroke="#000000" stroke-linejoin="round" stroke-miterlimit="10" x1="6.5" y1="8" x2="6.5" y2="14"/>
		<line fill="none" stroke="#000000" stroke-linejoin="round" stroke-miterlimit="10" x1="19.5" y1="8" x2="19.5" y2="16"/>
		<polygon points="7,15 6,15 6,16 7,16 			"/>
		<polygon points="10,15 9,15 9,16 10,16 			"/>
		<polygon points="12,15 11,15 11,16 12,16 			"/>
		<polygon points="16,15 15,15 15,16 16,16 			"/>
		<polygon points="18,15 17,15 17,16 18,16 			"/>
		<line fill="none" stroke="#000000" stroke-linejoin="round" stroke-miterlimit="10" x1="9.5" y1="8" x2="9.5" y2="14"/>
		<line fill="none" stroke="#000000" stroke-linejoin="round" stroke-miterlimit="10" x1="11.5" y1="8" x2="11.5" y2="14"/>
		<line fill="none" stroke="#000000" stroke-linejoin="round" stroke-miterlimit="10" x1="15.5" y1="8" x2="15.5" y2="14"/>
		<line fill="none" stroke="#000000" stroke-linejoin="round" stroke-miterlimit="10" x1="17.5" y1="8" x2="17.5" y2="14"/>
	</g>
	<path fill="none" stroke="#000000" stroke-width="1.5" stroke-linejoin="round" stroke-miterlimit="10" d="M21.8,18.2H2.2
		c-0.8,0-1.5-0.7-1.5-1.5V7.2c0-0.8,0.7-1.5,1.5-1.5h19.5c0.8,0,1.5,0.7,1.5,1.5v9.5C23.2,17.6,22.6,18.2,21.8,18.2z"/>
</g>
</svg>
