<?xml version="1.0" encoding="utf-8"?>
<!-- Generator: Adobe Illustrator 18.0.0, SVG Export Plug-In . SVG Version: 6.00 Build 0)  -->
<!DOCTYPE svg PUBLIC "-//W3C//DTD SVG 1.1//EN" "http://www.w3.org/Graphics/SVG/1.1/DTD/svg11.dtd">
<svg version="1.1" id="Layer_1" xmlns="http://www.w3.org/2000/svg" xmlns:xlink="http://www.w3.org/1999/xlink" x="0px" y="0px"
	 viewBox="0 0 24 24" enable-background="new 0 0 24 24" xml:space="preserve">
<g>
	
		<ellipse fill="none" stroke="#000000" stroke-width="1.5" stroke-linejoin="round" stroke-miterlimit="10" cx="11.9" cy="12" rx="11.2" ry="11.2"/>
	<path fill="none" stroke="#000000" stroke-width="1.5" stroke-linejoin="round" stroke-miterlimit="10" d="M3.7,19.7
		C5,15.6,9.2,6.5,20.2,4.3"/>
	<path fill="none" stroke="#000000" stroke-width="1.5" stroke-linejoin="round" stroke-miterlimit="10" d="M3.5,4.5
		c4.5,1.6,12.8,6,14.7,16.9"/>
	<path fill="none" stroke="#000000" stroke-width="1.5" stroke-linejoin="round" stroke-miterlimit="10" d="M10.5,0.9
		c0,0.1,0,0.3,0,0.4c0,4.6-3.7,8.3-8.2,8.3c-0.4,0-0.8,0-1.1-0.1"/>
	<path fill="none" stroke="#000000" stroke-width="1.5" stroke-linejoin="round" stroke-miterlimit="10" d="M11.7,23.2
		c-0.8-1.2-1.2-2.8-1.2-4.4c0-4.6,3.7-8.3,8.2-8.3c1.6,0,3.2,0.5,4.5,1.3"/>
</g>
</svg>
