<?xml version="1.0" encoding="utf-8"?>
<!-- Generator: Adobe Illustrator 18.0.0, SVG Export Plug-In . SVG Version: 6.00 Build 0)  -->
<!DOCTYPE svg PUBLIC "-//W3C//DTD SVG 1.1//EN" "http://www.w3.org/Graphics/SVG/1.1/DTD/svg11.dtd">
<svg version="1.1" id="Layer_1" xmlns="http://www.w3.org/2000/svg" xmlns:xlink="http://www.w3.org/1999/xlink" x="0px" y="0px"
	 viewBox="0 0 24 24" enable-background="new 0 0 24 24" xml:space="preserve">
  <g>
    <path fill="currentColor" d="M20.0625 0L3.96875.03125C3.1660079.1962178 2.9475356.503846 2.90625.59375 2.7475259.9393898 2.744387 1.0786967 2.8125 1.34375 2.9932837 2.047241 3.7445398 2.8188597 4.3125 3.375L9.3125 8.28125C10.073197 9.026116 11.040034 9.226637 12.03125 9.21875 13.001697 9.21095 14.005242 9.010509 14.75 8.28125L19.84375 3.28125C20.596478 2.5441866 21.21875 2.0556574 21.21875 1.09375 21.21875 1.000099 21.068089.5168461 20.84375.3125 20.592573.0837042 20.344043.0280422 20.0625 0zM1.09375 2.78125C1.000099 2.78125.5168461 2.9319127.3125 3.15625.0837041 3.407428.0280422 3.6559565 0 3.9375L.03125 20.03125C.1962177 20.833992.503846 21.052463.59375 21.09375.9393898 21.252473 1.0786966 21.255613 1.34375 21.1875 2.047241 21.006716 2.8188599 20.25546 3.375 19.6875L8.28125 14.6875C9.026117 13.926801 9.226636 12.959966 9.21875 11.96875 9.21095 10.998303 9.010509 9.994757 8.28125 9.25L3.28125 4.15625C2.5441867 3.403522 2.0556574 2.78125 1.09375 2.78125zM23 2.78125C22.890196 2.7675748 22.788777 2.7784435 22.65625 2.8125 21.95276 2.9932837 21.181141 3.7445399 20.625 4.3125L15.71875 9.3125C14.973882 10.073199 14.773364 11.040036 14.78125 12.03125 14.78905 13.001698 14.98949 14.005241 15.71875 14.75L20.71875 19.84375C21.455814 20.596479 21.944342 21.21875 22.90625 21.21875 22.9999 21.21875 23.483154 21.068086 23.6875 20.84375 23.916296 20.592572 23.971957 20.344042 24 20.0625L23.96875 3.96875C23.803783 3.1660078 23.496154 2.9475355 23.40625 2.90625 23.23343 2.8268879 23.109804 2.7949252 23 2.78125zM11.96875 14.78125C10.998302 14.78905 9.994759 14.98949 9.25 15.71875L4.15625 20.71875C3.403522 21.455814 2.78125 21.944342 2.78125 22.90625 2.78125 22.9999 2.9319128 23.483154 3.15625 23.6875 3.4074277 23.916296 3.6559569 23.971957 3.9375 24L20.03125 23.96875C20.833992 23.803783 21.052464 23.496154 21.09375 23.40625 21.252475 23.060609 21.255613 22.921303 21.1875 22.65625 21.006717 21.952759 20.255461 21.181141 19.6875 20.625L14.6875 15.71875C13.926802 14.973883 12.959964 14.773363 11.96875 14.78125z"/>
  </g>
</svg>
