<?xml version="1.0" encoding="utf-8"?>
<!-- Generator: Adobe Illustrator 18.0.0, SVG Export Plug-In . SVG Version: 6.00 Build 0)  -->
<!DOCTYPE svg PUBLIC "-//W3C//DTD SVG 1.1//EN" "http://www.w3.org/Graphics/SVG/1.1/DTD/svg11.dtd">
<svg version="1.1" id="Layer_1" xmlns="http://www.w3.org/2000/svg" xmlns:xlink="http://www.w3.org/1999/xlink" x="0px" y="0px"
	 viewBox="0 0 24 24" enable-background="new 0 0 24 24" xml:space="preserve">
    <g>
        <polygon fill="none" stroke="#000000" stroke-width="1.5" stroke-linecap="round" points="17 22.4648 13.5 23.4648 14.5 19.9648 21 13.4648 23.5 15.9648"></polygon>
        <path fill="none" stroke="#000000" stroke-width="1.5" d="M19,15.4648 L21.5,17.9648" id="Stroke-514"></path>
        <path fill="none" stroke="#000000" stroke-width="1.5" d="M14.5,19.9648 L17,22.4648" id="Stroke-515" stroke-linecap="round"></path>
        <path fill="none" stroke="#000000" stroke-width="1.5" d="M16.4316,14.4648 C15.6546,14.2078 12.4996,12.7848 11.4996,12.4648 L11.4996,9.9648 C11.4996,9.9648 12.9996,9.3448 12.9996,6.9648 C13.9996,6.9648 13.9996,4.8938 12.9996,4.8938 C12.9996,4.6598 13.8966,3.2868 13.5686,1.9648 C13.0936,0.0598 7.5076,0.0598 7.0346,1.9648 C4.6656,1.4878 5.9996,4.6458 5.9996,4.9648 C5.4996,4.9648 5.4996,6.9648 5.9996,6.9648 C5.9996,9.3448 7.4996,9.9648 7.4996,9.9648 L7.4996,12.4648 C4.9996,13.5198 1.4806,14.2198 1.0686,15.4648 C0.5936,16.8938 0.4996,19.4998 0.4996,19.4998 L10.9996,19.4998" id="Stroke-516"></path>
    </g>
</svg>