<?xml version="1.0" encoding="utf-8"?>
<!-- Generator: Adobe Illustrator 18.0.0, SVG Export Plug-In . SVG Version: 6.00 Build 0)  -->
<!DOCTYPE svg PUBLIC "-//W3C//DTD SVG 1.1//EN" "http://www.w3.org/Graphics/SVG/1.1/DTD/svg11.dtd">
<svg version="1.1" id="Layer_1" xmlns="http://www.w3.org/2000/svg" xmlns:xlink="http://www.w3.org/1999/xlink" x="0px" y="0px"
	 viewBox="0 0 24 24" enable-background="new 0 0 24 24" xml:space="preserve">
  <g fill="currentColor">
    <path d="M3.57418945,2.05196489 C2.70209715,2.05607917 2,2.79336623 2,3.71429974 L2,20.3376482 C2,21.2585817 2.70209715,22.004094 3.57418945,21.9999831 L14.5935156,21.9480351 C15.4656079,21.9439624 16.1677051,21.2066338 16.1677051,20.2857003 L16.1677051,16.9610306 L13.0193262,16.9610306 L13.0193262,17.844146 C13.0193262,18.2826857 12.6966984,18.6199925 12.2814249,18.6233654 L5.88628022,18.6753134 C5.47100636,18.6787212 5.14837891,18.3346336 5.14837891,17.8960939 L5.14837891,6.15585405 C5.14837891,5.71731432 5.47100636,5.38000788 5.88628022,5.37663459 L12.2814249,5.32468662 C12.6966984,5.32131208 13.0193262,5.66536636 13.0193262,6.10390608 L13.0193262,6.98702147 L16.1677051,6.98702147 L16.1677051,3.66235177 C16.1677051,2.74141827 15.4656079,1.99590564 14.5935156,2.00001692 L3.57418945,2.05196489 Z"/>
    <path d="M17.9579439,4.98702892 C17.846054,4.98702892 17.9579439,4.98702892 17.9579439,4.98702892 L17.9579439,9.97403753 L8.86688733,9.97403753 C8.44612213,9.97403753 8.11163032,10.3467506 8.11163032,10.8155952 L8.11163032,13.1220867 C8.11163032,13.5909313 8.44612213,13.9636444 8.86688733,13.9636444 L17.9579439,13.9636444 L17.9579439,18.950653 C17.9579439,18.950653 18.0291507,18.8713097 18.8530633,17.9532513 L23.3286604,12.9662427 C24.2237799,11.968841 24.2237799,11.968841 23.3286604,10.9714392 L18.8530633,5.98443064 C18.4055036,5.48572978 18.0698339,4.98702892 17.9579439,4.98702892 Z"/>
  </g>
</svg>
