<?xml version="1.0" encoding="utf-8"?>
<!-- Generator: Adobe Illustrator 18.0.0, SVG Export Plug-In . SVG Version: 6.00 Build 0)  -->
<!DOCTYPE svg PUBLIC "-//W3C//DTD SVG 1.1//EN" "http://www.w3.org/Graphics/SVG/1.1/DTD/svg11.dtd">
<svg version="1.1" id="Layer_1" xmlns="http://www.w3.org/2000/svg" xmlns:xlink="http://www.w3.org/1999/xlink" x="0px" y="0px"
	 viewBox="0 0 24 24" enable-background="new 0 0 24 24" xml:space="preserve">
<g>
	
		<ellipse fill="none" stroke="#000000" stroke-width="1.5" stroke-linejoin="round" stroke-miterlimit="10" cx="12" cy="12" rx="4.3" ry="4.2"/>
	<path fill="none" stroke="#000000" stroke-width="1.5" stroke-linejoin="round" stroke-miterlimit="10" d="M21.2,12
		c0-0.7-0.1-1.3-0.2-1.9l2.2-1.3l-2.8-4.9l-2.2,1.3c-1-0.9-1.9-1.5-3.3-1.9V0.8H9.3v2.6C7.8,3.7,6.8,4.4,5.9,5.2L3.6,3.9L0.8,8.8
		L3,10.1c-0.1,0.6-0.2,1.3-0.2,1.9c0,0.7,0.1,1.3,0.2,1.9l-2.2,1.3l2.8,4.9l2.3-1.3c1,0.9,2,1.5,3.4,1.9v2.6h5.7v-2.6
		c1.4-0.4,2.3-1.1,3.3-1.9l2.2,1.3l2.8-4.9L21,13.9C21.1,13.3,21.2,12.7,21.2,12z"/>
</g>
</svg>
