<?xml version="1.0" encoding="utf-8"?>
<!-- Generator: Adobe Illustrator 18.0.0, SVG Export Plug-In . SVG Version: 6.00 Build 0)  -->
<!DOCTYPE svg PUBLIC "-//W3C//DTD SVG 1.1//EN" "http://www.w3.org/Graphics/SVG/1.1/DTD/svg11.dtd">
<svg version="1.1" id="Layer_1" xmlns="http://www.w3.org/2000/svg" xmlns:xlink="http://www.w3.org/1999/xlink" x="0px" y="0px"
	 viewBox="0 0 24 24" enable-background="new 0 0 24 24" xml:space="preserve">
<g>
	
		<rect x="0.8" y="14.4" fill="none" stroke="#000000" stroke-width="1.5" stroke-linejoin="round" stroke-miterlimit="10" width="3.9" height="7.9"/>
	<path fill="none" stroke="#000000" stroke-width="1.5" stroke-linecap="round" stroke-linejoin="round" stroke-miterlimit="10" d="
		M4.7,20.8c10.5,3.5,6.6,3.6,18.6-2.5c-1-1-1.9-1.3-2.9-1L16,18.8"/>
	<path fill="none" stroke="#000000" stroke-width="1.5" stroke-linecap="round" stroke-linejoin="round" stroke-miterlimit="10" d="
		M4.7,15.4h2.9c2.3,0,3.9,1.5,4.4,2c0,0,1.5,0,2.9,0c1.6,0,1.6,2,0,2H9.6"/>
	<path fill="none" stroke="#000000" stroke-width="1.5" stroke-linecap="round" stroke-linejoin="round" stroke-miterlimit="10" d="
		M7,12.2c-0.5-1.1-0.8-2.3-0.8-3.5c0-4.4,3.5-7.9,7.8-7.9c4.3,0,7.8,3.5,7.8,7.9c0,2.9-1.5,5.4-3.8,6.8"/>
	<path fill="none" stroke="#000000" stroke-width="1.5" stroke-linecap="round" stroke-linejoin="round" stroke-miterlimit="10" d="
		M19.7,3.3c0,0-0.3,1.9-1.7,2.6c-1.4-0.3-2.7,0.7-2.4,0.7C16,6.6,16.3,8,16.3,8c0.3,0.3,1,0,1,0c0.8,0.9-1.4,2.4-1.4,2.7
		c0,0.3,0.9,0.5,0.3,1c-0.5,0.5-1,0.7-1,0.7c0,1.7-1.7,1.7-2,1.7c-0.3,0-1-1.4-1-1.7c0-0.3,0.3-0.7,0.3-1c0-0.3-0.7-1-0.7-1
		c0-1.4-1-1-2-1c-1,0-1-1.4-1-1.4s0-2.4,1.7-2.7c1.7-0.3,1.7,0.3,1.7,0.3c0.7,0.7,2,0,2.7,0c0,0,0.3-2.4-0.3-2.1
		c-0.7,0.3-1.3,0.1-1.4-0.7c-0.1-1.1,3-1.7,3-1.7"/>
</g>
</svg>
