<?xml version="1.0" encoding="utf-8"?>
<!-- Generator: Adobe Illustrator 18.0.0, SVG Export Plug-In . SVG Version: 6.00 Build 0)  -->
<!DOCTYPE svg PUBLIC "-//W3C//DTD SVG 1.1//EN" "http://www.w3.org/Graphics/SVG/1.1/DTD/svg11.dtd">
<svg version="1.1" id="Layer_1" xmlns="http://www.w3.org/2000/svg" xmlns:xlink="http://www.w3.org/1999/xlink" x="0px" y="0px"
	 viewBox="0 0 24 24" enable-background="new 0 0 24 24" xml:space="preserve">
<g>
	
		<circle fill="none" stroke="#010101" stroke-width="1.5" stroke-linecap="round" stroke-linejoin="round" stroke-miterlimit="10" cx="12" cy="12" r="11.2"/>
	<path fill="none" stroke="#010101" stroke-width="1.5" stroke-linecap="round" stroke-linejoin="round" stroke-miterlimit="10" d="
		M20.3,4.4c0,0-0.5,2.7-2.4,3.7c-2-0.5-3.9,1-3.4,1c0.5,0,1,2,1,2c0.5,0.5,1.5,0,1.5,0c1.2,1.2-2,3.4-2,3.9c0,0.5,1.2,0.7,0.5,1.5
		c-0.7,0.7-1.5,1-1.5,1c0,2.4-2.4,2.4-2.9,2.4c-0.5,0-1.5-2-1.5-2.4s0.5-1,0.5-1.5c0-0.5-1-1.5-1-1.5c0-2-1.5-1.5-2.9-1.5
		s-1.5-2-1.5-2s0-3.4,2.4-3.9s2.4,0.5,2.4,0.5c1,1,2.9,0,3.9,0c0,0,0.5-3.4-0.5-2.9s-1.9,0.1-2-1c-0.1-1.5,4.3-2.4,4.3-2.4"/>
</g>
</svg>
