<?xml version="1.0" encoding="utf-8"?>
<!-- Generator: Adobe Illustrator 18.0.0, SVG Export Plug-In . SVG Version: 6.00 Build 0)  -->
<!DOCTYPE svg PUBLIC "-//W3C//DTD SVG 1.1//EN" "http://www.w3.org/Graphics/SVG/1.1/DTD/svg11.dtd">
<svg version="1.1" id="Layer_1" xmlns="http://www.w3.org/2000/svg" xmlns:xlink="http://www.w3.org/1999/xlink" x="0px" y="0px"
	 viewBox="0 0 24 24" enable-background="new 0 0 24 24" xml:space="preserve">
  <g fill="currentColor">
    <path d="M15.7666667,7.60833333 L12.7416667,10.6333333 C12.7416667,10.8166667 12.8333333,10.9083333 12.8333333,11.0916667 C12.8333333,12.1 12.0083333,12.925 11,12.925 C10.3583333,12.925 9.71666667,12.4666667 9.44166667,12.0083333 L6.875,12.0083333 C6.6,11.9166667 6.41666667,11.7333333 6.41666667,11.4583333 L6.41666667,10.5416667 C6.41666667,10.3583333 6.6,10.0833333 6.875,10.0833333 L9.44166667,10.0833333 C9.71666667,9.625 10.3583333,9.16666667 11,9.16666667 C11.1833333,9.16666667 11.3666667,9.16666667 11.55,9.25833333 L14.4833333,6.325 C14.6666667,6.14166667 14.9416667,6.14166667 15.125,6.325 L15.7666667,6.96666667 C15.95,7.05833333 15.95,7.425 15.7666667,7.60833333 Z M21.8166667,12.8333333 C21.9083333,11.9166667 22,11.6416667 22,11 C22,4.95 17.05,0 11,0 C4.95,0 0,4.85833333 0,11 C0,17.05 4.58333333,22 11,22 L11,22 C12.8333333,22 15.125,21.45 16.9583333,20.1666667 L17.05,20.1666667 L18.425,22 C18.6083333,22.1833333 18.7916667,22.1833333 18.7916667,21.9083333 L20.8083333,16.0416667 C20.9,15.7666667 20.7166667,15.5833333 20.4416667,15.5833333 L14.2083333,15.5833333 C13.9333333,15.5833333 13.8416667,15.7666667 14.025,15.95 L15.4,17.875 C14.025,18.7916667 12.8333333,19.1583333 11,19.1583333 L11,19.1583333 C6.41666667,19.1583333 2.75,15.4916667 2.75,10.9083333 C2.75,6.325 6.41666667,2.65833333 11,2.65833333 C15.5833333,2.65833333 19.25,6.325 19.25,10.9083333 C19.25,11.55 19.1583333,11.825 19.0666667,12.7416667 L21.8166667,12.8333333 L21.8166667,12.8333333 Z" id="Shape"></path>
    <path d="M15.7666667,7.60833333 L12.7416667,10.6333333 C12.7416667,10.8166667 12.8333333,10.9083333 12.8333333,11.0916667 C12.8333333,12.1 12.0083333,12.925 11,12.925 C10.3583333,12.925 9.71666667,12.4666667 9.44166667,12.0083333 L6.875,12.0083333 C6.6,11.9166667 6.41666667,11.7333333 6.41666667,11.4583333 L6.41666667,10.5416667 C6.41666667,10.3583333 6.6,10.0833333 6.875,10.0833333 L9.44166667,10.0833333 C9.71666667,9.625 10.3583333,9.16666667 11,9.16666667 C11.1833333,9.16666667 11.3666667,9.16666667 11.55,9.25833333 L14.4833333,6.325 C14.6666667,6.14166667 14.9416667,6.14166667 15.125,6.325 L15.7666667,6.96666667 C15.95,7.05833333 15.95,7.425 15.7666667,7.60833333 Z M22,11 C22,4.95 17.05,0 11,0 C4.95,0 0,4.85833333 0,11 C0,17.05 4.58333333,22 11,22 C12.8333333,22 15.125,21.45 16.9583333,20.1666667 L17.05,20.1666667 L18.425,22 C18.6083333,22.1833333 18.7916667,22.1833333 18.7916667,21.9083333 L20.8083333,16.0416667 C20.9,15.7666667 20.7166667,15.5833333 20.4416667,15.5833333 L14.2083333,15.5833333 C13.9333333,15.5833333 13.8416667,15.7666667 14.025,15.95 L15.4,17.875 C14.025,18.7916667 12.8333333,19.1583333 11,19.1583333 C6.41666667,19.1583333 2.75,15.4916667 2.75,10.9083333 C2.75,6.325 6.41666667,2.65833333 11,2.65833333 C15.5833333,2.65833333 19.25,6.325 19.25,10.9083333 C19.25,11.55 19.1583333,11.825 19.0666667,12.7416667 L21.8166667,12.8333333 C21.9083333,11.9166667 22,11.6416667 22,11 Z" id="Shape"></path>
  </g>
</svg>