<?xml version="1.0" encoding="utf-8"?>
<!-- Generator: Adobe Illustrator 18.0.0, SVG Export Plug-In . SVG Version: 6.00 Build 0)  -->
<!DOCTYPE svg PUBLIC "-//W3C//DTD SVG 1.1//EN" "http://www.w3.org/Graphics/SVG/1.1/DTD/svg11.dtd">
<svg version="1.1" id="Layer_1" xmlns="http://www.w3.org/2000/svg" xmlns:xlink="http://www.w3.org/1999/xlink" x="0px" y="0px"
	 viewBox="0 0 24 24" enable-background="new 0 0 24 24" xml:space="preserve">
  <g fill="none" stroke="#010101" stroke-width="1.5" stroke-linejoin="round" transform="translate(4 1)">
    <path d="M8.49986508,13.6944445 C8.49986508,13.9541667 8.28830953,14.1666667 8.02764286,14.1666667 C7.76697619,14.1666667 7.55542063,13.9541667 7.55542063,13.6944445 C7.55542063,13.4328333 7.76697619,13.2222222 8.02764286,13.2222222 C8.28830953,13.2222222 8.49986508,13.4328333 8.49986508,13.6944445 L8.49986508,13.6944445 Z"/>
    <path stroke-linecap="round" d="M8.02764286,14.1666667 L8.02764286,17"/>
    <polygon points="0 21.722 16.055 21.722 16.055 8.5 0 8.5"/>
    <path d="M2.83319841,5.19444445 C2.83319841,2.32522222 5.15842063,0 8.02764286,0 C10.8968651,0 13.2220873,2.32522222 13.2220873,5.19444445 L13.2220873,8.5 L2.83319841,8.5 L2.83319841,5.19444445 L2.83319841,5.19444445 Z"/>
  </g>
</svg>
