<?xml version="1.0" encoding="utf-8"?>
<!-- Generator: Adobe Illustrator 18.0.0, SVG Export Plug-In . SVG Version: 6.00 Build 0)  -->
<!DOCTYPE svg PUBLIC "-//W3C//DTD SVG 1.1//EN" "http://www.w3.org/Graphics/SVG/1.1/DTD/svg11.dtd">
<svg version="1.1" id="Layer_1" xmlns="http://www.w3.org/2000/svg" xmlns:xlink="http://www.w3.org/1999/xlink" x="0px" y="0px"
	 viewBox="0 0 24 24" enable-background="new 0 0 24 24" xml:space="preserve">
<g>
	<path fill="none" stroke="#010101" stroke-width="1.5" stroke-linecap="round" stroke-linejoin="round" stroke-miterlimit="10" d="
		M7.6,7.2c0,19.7,0-12.7,0,8.5c0,2.7,1.5,5.2,3.9,6.5"/>
	<path fill="none" stroke="#010101" stroke-width="1.5" stroke-linecap="round" stroke-linejoin="round" stroke-miterlimit="10" d="
		M23.3,11.7c0,0.8-0.7,1.5-1.5,1.5h-0.5v-4h0.5c0.8,0,1.5,0.7,1.5,1.5V11.7z"/>
	<path fill="none" stroke="#010101" stroke-width="1.5" stroke-linecap="round" stroke-linejoin="round" stroke-miterlimit="10" d="
		M4.6,7.2h-1c-1.6,0-2.9,1.3-2.9,3v2c0,1.7,1.3,3,2.9,3h1c8.8,0,12.4,2,16.7,4v-16C17,5.2,13.4,7.2,4.6,7.2z"/>
</g>
</svg>
