<?xml version="1.0" encoding="utf-8"?>
<!-- Generator: Adobe Illustrator 18.0.0, SVG Export Plug-In . SVG Version: 6.00 Build 0)  -->
<!DOCTYPE svg PUBLIC "-//W3C//DTD SVG 1.1//EN" "http://www.w3.org/Graphics/SVG/1.1/DTD/svg11.dtd">
<svg version="1.1" id="Layer_1" xmlns="http://www.w3.org/2000/svg" xmlns:xlink="http://www.w3.org/1999/xlink" x="0px" y="0px"
	 viewBox="0 0 24 24" 
   enable-background="new 0 0 24 24" xml:space="preserve">
  <g fill="currentColor" transform="translate(1 1)">
    <path d="M0.321841667,21.1701417 C0.285175,21.3241417 0.331925,21.4863917 0.443758333,21.5991417 C0.551925,21.7073083 0.711425,21.7586417 0.872758333,21.7210583 C0.872758333,21.7210583 6.876925,20.3066417 6.91175833,20.2883083 L1.75459167,15.1311417 C1.73625833,15.165975 0.321841667,21.1701417 0.321841667,21.1701417"/>
    <polygon points="19.7 7.528 20.348 6.88 15.162 1.695 14.514 2.343"/>
    <polygon points="7.574 19.654 19.052 8.176 13.866 2.991 2.389 14.469"/>
    <path d="M20.9960667,6.23223333 L21.3205667,5.90773333 C22.2134,5.0149 22.2134,3.56106667 21.3205667,2.66731667 L19.3754,0.723983333 C18.9427333,0.289483333 18.3670667,0.05115 17.75565,0.05115 C17.1433167,0.05115 16.56765,0.289483333 16.1349833,0.723983333 L15.8104833,1.04665 L20.9960667,6.23223333 Z"/>
  </g>
</svg>


