<?xml version="1.0" encoding="utf-8"?>
<!-- Generator: Adobe Illustrator 18.0.0, SVG Export Plug-In . SVG Version: 6.00 Build 0)  -->
<!DOCTYPE svg PUBLIC "-//W3C//DTD SVG 1.1//EN" "http://www.w3.org/Graphics/SVG/1.1/DTD/svg11.dtd">
<svg version="1.1" id="Layer_1" xmlns="http://www.w3.org/2000/svg" xmlns:xlink="http://www.w3.org/1999/xlink" x="0px" y="0px"
	 viewBox="0 0 24 24" enable-background="new 0 0 24 24" xml:space="preserve">
<g>
	<path fill="none" stroke="#000000" stroke-width="1.5" stroke-linejoin="round" stroke-miterlimit="10" d="M8,21.2h7.1
		c0,0,0-3,0-4.5c0-0.5-2.6-2.2-5-3.2v-2.1c0,0,1-0.3,1-2.6c0.7,0,1-2.1,0-2.1c0-0.2,0.7-1.3,0.4-2.6c-0.5-2.1-5.4-2.1-5.8,0
		c-2-0.4-0.5,2.3-0.5,2.6c-1,0-0.7,2.1,0,2.1c0,2.2,1,2.6,1,2.6v2.1c-2.5,1-5.4,2.6-5.4,3.1c0,1,0,4.6,0,4.6H8z"/>
	<path fill="none" stroke="#000000" stroke-width="1.5" stroke-linecap="round" stroke-linejoin="round" stroke-miterlimit="10" d="
		M19.2,21.2h4.1c0,0,0-3.4,0-4.6c0-0.5-2.5-1.2-4.4-2.1V13c0,0,1-0.3,1-2.1c0.5,0,0.7-2.1,0-2.1c0-0.2,0.8-1.1,0.5-2.1
		c-0.5-1.5-4.4-1.5-4.9,0C13.8,6.6,15,8.7,15,8.9c-0.8,0-0.5,2.1,0,2.1c0,1.7,1,2.1,1,2.1"/>
</g>
</svg>
