<?xml version="1.0" encoding="utf-8"?>
<!-- Generator: Adobe Illustrator 18.0.0, SVG Export Plug-In . SVG Version: 6.00 Build 0)  -->
<!DOCTYPE svg PUBLIC "-//W3C//DTD SVG 1.1//EN" "http://www.w3.org/Graphics/SVG/1.1/DTD/svg11.dtd">
<svg version="1.1" id="Layer_1" xmlns="http://www.w3.org/2000/svg" xmlns:xlink="http://www.w3.org/1999/xlink" x="0px" y="0px"
	 viewBox="0 0 25 19" enable-background="new 0 0 24 24" xml:space="preserve">
  <g fill="none" stroke="#000" stroke-linecap="round" stroke-width="1.5" transform="translate(1 1)">
    <path stroke-linecap="round" d="M0 0L0 17 4 17 4 15.5C4 14.538 4.787 13.75 5.75 13.75 6.712 13.75 7.5 14.538 7.5 15.5L7.5 17 15.5 17 15.5 15.5C15.5 14.538 16.287 13.75 17.25 13.75 18.212 13.75 19 14.538 19 15.5L19 17 23 17 23 0 0 0 0 0zM12 10L20 10M12 8L20 8M12 6L20 6M12 4L16 4"/>
    <path stroke="#000" stroke-linecap="round" stroke-width="1.5" d="M6,11 L1.5,11 L1.5,9 C1.5,9 3,7.5 5,7.5 L5,6.5 C5,6.5 4,6 4,4.5 C4,3.5 4,2.5 6,2.5 C8,2.5 8,3.5 8,4.5 C8,6 7,6.5 7,6.5 L7,7.5 C9,7.5 10.5,9 10.5,9 L10.5,11 L6,11 L6,11 Z"/>
  </g>
</svg>
