<?xml version="1.0" encoding="utf-8"?>
<!-- Generator: Adobe Illustrator 18.0.0, SVG Export Plug-In . SVG Version: 6.00 Build 0)  -->
<!DOCTYPE svg PUBLIC "-//W3C//DTD SVG 1.1//EN" "http://www.w3.org/Graphics/SVG/1.1/DTD/svg11.dtd">
<svg version="1.1" id="Layer_1" xmlns="http://www.w3.org/2000/svg" xmlns:xlink="http://www.w3.org/1999/xlink" x="0px" y="0px"
	 viewBox="0 0 24 24" enable-background="new 0 0 24 24" xml:space="preserve">
<g>
	<path fill="none" stroke="#000000" stroke-width="1.5" stroke-linecap="round" stroke-linejoin="round" stroke-miterlimit="10" d="
		M9,7.3C9.9,6.4,9.9,4.9,9,4L6.5,1.4c-0.9-0.8-2.4-0.8-3.3,0L1.8,2.9C0.6,4,0.5,5.9,1.3,7.3c4,6,9.4,11.3,15.4,15.4
		c1.5,0.9,3.2,0.7,4.5-0.4l1.4-1.3c0.9-0.9,0.9-2.4,0-3.3L20,15.1c-0.9-0.9-2.4-0.9-3.3,0l-0.8,0.8c-2.7-2.3-5.4-4.9-7.7-7.7L9,7.3z
		"/>
</g>
</svg>
