<?xml version="1.0" encoding="utf-8"?>
<!-- Generator: Adobe Illustrator 18.0.0, SVG Export Plug-In . SVG Version: 6.00 Build 0)  -->
<!DOCTYPE svg PUBLIC "-//W3C//DTD SVG 1.1//EN" "http://www.w3.org/Graphics/SVG/1.1/DTD/svg11.dtd">
<svg version="1.1" id="Layer_1" xmlns="http://www.w3.org/2000/svg" xmlns:xlink="http://www.w3.org/1999/xlink" x="0px" y="0px"
	 viewBox="0 0 24 24" enable-background="new 0 0 24 24" xml:space="preserve">
<g>
	<path fill="none" stroke="#000000" stroke-width="1.5" stroke-linejoin="round" stroke-miterlimit="10" d="M10,14.9
		c0,0-1.5-0.5-1.5-2.9c-0.8,0-0.8-2,0-2c0-0.3-1.5-3.9,1-3.4c0.5-2,5.9-2,6.4,0c0.3,1.4-0.5,3.2-0.5,3.4c0.8,0,0.8,2,0,2
		c0,2.4-1.5,2.9-1.5,2.9v2.4c2.4,0.9,4.8,1.7,6.1,2.5c2-2,3.2-4.8,3.2-7.9c0-6.2-5-11.2-11.2-11.2S0.8,5.8,0.8,12
		c0,3.1,1.2,5.9,3.3,7.9c1.3-0.9,3.9-1.7,6-2.5V14.9z"/>
	<path fill="none" stroke="#000000" stroke-width="1.5" stroke-linejoin="round" stroke-miterlimit="10" d="M4,19.9
		c2,2.1,4.9,3.3,8,3.3c3.1,0,6-1.3,8-3.4"/>
</g>
</svg>
