<?xml version="1.0" encoding="utf-8"?>
<!-- Generator: Adobe Illustrator 18.0.0, SVG Export Plug-In . SVG Version: 6.00 Build 0)  -->
<!DOCTYPE svg PUBLIC "-//W3C//DTD SVG 1.1//EN" "http://www.w3.org/Graphics/SVG/1.1/DTD/svg11.dtd">
<svg version="1.1" id="Layer_1" xmlns="http://www.w3.org/2000/svg" xmlns:xlink="http://www.w3.org/1999/xlink" x="0px" y="0px"
	 viewBox="0 0 24 24" enable-background="new 0 0 24 24" xml:space="preserve">
  <path fill="currentColor" d="M9.11832393,-8.8817842e-16 C14.1542359,-8.8817842e-16 18.2366489,3.92542457 18.2366489,8.76768195 C18.2366489,10.8184637 17.5138209,12.6964673 16.2870069,14.1898009 L23.7856288,21.3712236 C24.1364148,21.7085202 24.0429408,22.3062908 23.6056618,22.7267534 L22.6758328,23.620826 C22.2385548,24.0412895 21.6168778,24.131169 21.2660918,23.7938724 L13.5875029,16.3817212 C12.2648409,17.1000762 10.7457379,17.5353629 9.11832393,17.5353629 C4.08241267,17.5353629 0,13.6099382 0,8.76768195 C0,3.92542457 4.08241267,-8.8817842e-16 9.11832393,-8.8817842e-16 Z M9.11832393,2.76874143 L9.11832393,2.76874143 C5.67270066,2.76874143 2.87947078,5.45455833 2.87947078,8.76768195 C2.87947078,12.0808053 5.67270066,14.7666213 9.11832393,14.7666213 C12.5639479,14.7666213 15.3571779,12.0808053 15.3571779,8.76768195 C15.3571779,5.45455833 12.5639479,2.76874143 9.11832393,2.76874143 Z"/>
</svg>
