<?xml version="1.0" encoding="UTF-8"?>
<svg width="48px" height="48px" viewBox="0 0 48 48" version="1.1" xmlns="http://www.w3.org/2000/svg" xmlns:xlink="http://www.w3.org/1999/xlink">
    <!-- Generator: Sketch 51.3 (57544) - http://www.bohemiancoding.com/sketch -->
    <title>Twitter</title>
    <desc>Created with Sketch.</desc>
    <defs></defs>
    <g id="Twitter" stroke="none" stroke-width="1" fill="none" fill-rule="evenodd">
        <path d="M15.0780312,45 C33.1908764,45 43.1020408,29.2214567 43.1020408,15.5615157 C43.1020408,15.1176181 43.1020408,14.6737205 43.0828331,14.2298228 C45.0036014,12.7770669 46.6746699,10.9409449 48,8.86269685 C46.2328932,9.68996063 44.3313325,10.2347441 42.3337335,10.4970472 C44.3697479,9.22588583 45.9255702,7.18799213 46.6746699,4.76673228 C44.7731092,5.95718504 42.6602641,6.80462598 40.4129652,7.26870079 C38.607443,5.25098425 36.0528211,4 33.2292917,4 C27.7935174,4 23.3757503,8.64074803 23.3757503,14.3508858 C23.3757503,15.1579724 23.4717887,15.9448819 23.6254502,16.7116142 C15.4429772,16.2878937 8.18247299,12.1515748 3.32292917,5.89665354 C2.47779112,7.43011811 1.99759904,9.20570866 1.99759904,11.1023622 C1.99759904,14.6938976 3.7454982,17.8617126 6.37695078,19.7180118 C4.7635054,19.6574803 3.24609844,19.1934055 1.92076831,18.4266732 C1.92076831,18.4670276 1.92076831,18.5073819 1.92076831,18.5679134 C1.92076831,23.5718504 5.32052821,27.7687008 9.81512605,28.7170276 C8.98919568,28.9591535 8.12484994,29.0802165 7.22208884,29.0802165 C6.58823529,29.0802165 5.97358944,29.019685 5.37815126,28.898622 C6.62665066,33.0147638 10.2761104,36.0009843 14.5786315,36.0816929 C11.1980792,38.8661417 6.95318127,40.5206693 2.34333733,40.5206693 C1.55582233,40.5206693 0.768307323,40.480315 0,40.3794291 C4.34093637,43.2849409 9.5270108,45 15.0780312,45" id="Shape" fill="#1DA1F2" fill-rule="nonzero"></path>
    </g>
</svg>