<?xml version="1.0" encoding="utf-8"?>
<!-- Generator: Adobe Illustrator 18.0.0, SVG Export Plug-In . SVG Version: 6.00 Build 0)  -->
<!DOCTYPE svg PUBLIC "-//W3C//DTD SVG 1.1//EN" "http://www.w3.org/Graphics/SVG/1.1/DTD/svg11.dtd">
<svg version="1.1" id="Layer_1" xmlns="http://www.w3.org/2000/svg" xmlns:xlink="http://www.w3.org/1999/xlink" x="0px" y="0px"
	 viewBox="0 0 24 24" enable-background="new 0 0 24 24" xml:space="preserve">
<g fill="currentColor">
	<path d="M24,4.9c-0.9,0.4-1.6,0.4-2.4,0c1-0.6,1-1,1.4-2.1c-0.9,0.6-2,1-3.1,1.2C19,3,17.8,2.4,16.4,2.4c-2.7,0-4.8,2.2-4.8,4.8
		c0,0.4,0,0.7,0.1,1.1c-4-0.2-7.6-2.1-10-5.1C1.3,4,1.1,4.9,1.1,5.7c0,1.7,0.9,3.2,2.2,4C2.4,9.7,1.7,9.5,1,9.2c0,0,0,0,0,0.1
		c0,2.3,1.7,4.3,3.9,4.7c-0.7,0.2-1.5,0.2-2.2,0.1c0.6,1.9,2.4,3.3,4.5,3.4c-2.1,1.6-4.6,2.3-7.2,2c2.1,1.4,4.7,2.2,7.4,2.2
		c8.9,0,13.8-7.4,13.8-13.8c0-0.2,0-0.4,0-0.6C22.2,6.5,23.3,5.9,24,4.9z"/>
</g>
</svg>
