<?xml version="1.0" encoding="utf-8"?>
<!-- Generator: Adobe Illustrator 22.0.1, SVG Export Plug-In . SVG Version: 6.00 Build 0)  -->
<svg version="1.1" id="Layer_1" xmlns="http://www.w3.org/2000/svg" xmlns:xlink="http://www.w3.org/1999/xlink" x="0px" y="0px"
	 viewBox="0 0 24 24" style="enable-background:new 0 0 24 24;" xml:space="preserve">
<style type="text/css">
	.st0{fill:none;stroke:#000000;stroke-width:1.5;stroke-linejoin:round;stroke-miterlimit:10;}
	.st1{fill:none;stroke:#000000;stroke-width:1.5;stroke-linecap:round;stroke-linejoin:round;stroke-miterlimit:10;}
</style>
<g>
	<path class="st0" d="M4.3,6.7v1.4L1.9,8.8C1.4,8.9,1,9.5,1,10v0.5h5.3 M7.2,6.7v1.4l2.4,0.7c0.5,0.1,0.9,0.7,0.9,1.2v0.5H5.3"/>
	<ellipse class="st0" cx="5.8" cy="3.9" rx="2.9" ry="3.2"/>
	<path class="st0" d="M8.6,3.4C8.1,3.9,6.8,3.9,6.3,2.9c-1,1-2.5,1-3.3,0.4 M16.8,6.7v1.4l-2.4,0.7c-0.5,0.1-0.9,0.7-0.9,1.2v0.5
		h5.3 M19.7,6.7v1.4l2.4,0.7C22.6,8.9,23,9.5,23,10v0.5h-5.3"/>
	<ellipse class="st0" cx="18.2" cy="3.9" rx="2.9" ry="3.2"/>
	<path class="st0" d="M21,3.4c-0.5,0.5-1.8,0.5-2.3-0.5c-1,1-2.5,1-3.3,0.4 M10.6,19.4v1.4l-2.4,0.7c-0.5,0.1-0.9,0.7-0.9,1.2v0.5
		h5.3 M13.4,19.4v1.4l2.4,0.7c0.5,0.1,0.9,0.7,0.9,1.2v0.5h-5.3"/>
	<ellipse class="st0" cx="12" cy="16.7" rx="2.9" ry="3.2"/>
	<path class="st0" d="M14.8,16.1c-0.5,0.5-1.8,0.5-2.3-0.5c-1,1-2.5,1-3.3,0.4"/>
	<path class="st1" d="M4.3,12.5l2.4,2.4 M19.7,12.5l-2.4,2.4"/>
</g>
</svg>
