<?xml version="1.0" encoding="utf-8"?>
<!-- Generator: Adobe Illustrator 18.0.0, SVG Export Plug-In . SVG Version: 6.00 Build 0)  -->
<!DOCTYPE svg PUBLIC "-//W3C//DTD SVG 1.1//EN" "http://www.w3.org/Graphics/SVG/1.1/DTD/svg11.dtd">
<svg version="1.1" id="Layer_1" xmlns="http://www.w3.org/2000/svg" xmlns:xlink="http://www.w3.org/1999/xlink" x="0px" y="0px"
	 viewBox="0 0 24 24" 
   enable-background="new 0 0 24 24" xml:space="preserve">
  <g stroke="none" stroke-width="1.5" fill="none">
     <path fill="currentColor" d="M18.882488,14.75 C17.4314047,14.75 16.157238,15.50075 15.422988,16.63375 L9.001738,13.4226667 C9.34182133,12.5115 9.345488,11.4995 9.001738,10.5773333 L15.422988,7.36716667 C16.157238,8.50016667 17.4314047,9.25 18.882488,9.25 C21.159488,9.25 23.007488,7.40291667 23.007488,5.125 C23.007488,2.84708333 21.159488,1 18.882488,1 C16.0316547,1 14.017738,3.83708333 15.013238,6.54675 L8.58557133,9.7615 C7.82840467,8.59 6.54690467,7.875 5.132488,7.875 C2.858238,7.875 1.007488,9.72575 1.007488,12 C1.007488,14.27425 2.858238,16.125 5.132488,16.125 C6.54690467,16.125 7.82840467,15.4109167 8.58557133,14.2385 L15.013238,17.45325 C14.0186547,20.16475 16.0325713,23 18.882488,23 C21.159488,23 23.007488,21.1529167 23.007488,18.875 C23.007488,16.5970833 21.159488,14.75 18.882488,14.75"/>
  </g>
</svg>